<?xml version="1.0" encoding="UTF-8"?>
<svg xmlns="http://www.w3.org/2000/svg" id="Layer_1" data-name="Layer 1" viewBox="0 0 615 360">
  <defs>
    <style>.cls-1{fill:#404eed;}.cls-2{fill:#5865f2;}.cls-3{fill:#4b59f2;}.cls-4{fill:#3543de;}.cls-5{fill:#fff4b3;}.cls-6{fill:#29cc7a;}.cls-7{fill:#8cd9ff;}.cls-8{fill:#bae8ff;}.cls-9{fill:#eb459f;}.cls-10,.cls-11,.cls-14,.cls-15,.cls-16,.cls-18,.cls-20,.cls-25,.cls-26,.cls-32,.cls-33,.cls-34,.cls-37,.cls-39,.cls-40,.cls-41{fill:none;}.cls-10{stroke:#d11583;}.cls-10,.cls-14,.cls-15,.cls-16,.cls-18,.cls-20,.cls-26,.cls-33,.cls-34,.cls-37,.cls-39,.cls-40{stroke-linecap:round;}.cls-10,.cls-11,.cls-15,.cls-16,.cls-20,.cls-25,.cls-26,.cls-32,.cls-41{stroke-miterlimit:10;}.cls-10,.cls-11,.cls-14,.cls-15,.cls-16,.cls-20,.cls-25,.cls-32,.cls-33,.cls-34,.cls-37,.cls-39,.cls-40,.cls-41{stroke-width:2px;}.cls-11,.cls-15{stroke:#fff;}.cls-12{fill:#912869;}.cls-13{fill:#611b46;}.cls-14,.cls-16{stroke:#000;}.cls-14,.cls-18,.cls-33,.cls-34,.cls-37,.cls-39,.cls-40{stroke-linejoin:round;}.cls-17{fill:#fff;}.cls-18{stroke:#2835bd;stroke-width:8px;}.cls-19{fill:#d11583;}.cls-20,.cls-39{stroke:#ffc619;}.cls-21{fill:#2a39d4;}.cls-22{fill:#2331b5;}.cls-23{fill:#3442d9;}.cls-24{fill:#ff78b9;}.cls-25{stroke:#3442d9;}.cls-26{stroke:#66bcff;stroke-width:4px;}.cls-27{fill:#ffe75c;}.cls-28{fill:#45aaf7;}.cls-29{fill:#3f99f2;}.cls-30{fill:#de3a93;}.cls-31{fill:#66bcff;}.cls-32{stroke:#2330bf;}.cls-33{stroke:#2467d4;}.cls-34{stroke:#a3d7ff;}.cls-35{fill:#adb4ff;}.cls-36{fill:#15ad75;}.cls-37{stroke:#15ad75;}.cls-38{fill:#ffc619;}.cls-40{stroke:#bae8ff;}.cls-41{stroke:#5865f2;}.cls-42{fill:#0060ff;}</style>
  </defs>
  <path class="cls-1" d="M614.2,359.4H449.3V307.9c38.4-36.6,82.2-11.4,85.1,15.8C578.1,295.3,619.2,318,614.2,359.4Z"></path>
  <path class="cls-2" d="M449.3,223.5H13.7V359.4H449.3V223.5Z"></path>
  <path class="cls-3" d="M13.7,265.5l435.6-35.1v-6.9H13.7Z"></path>
  <path class="cls-4" d="M449.3,223.5h-3.2V359.4h3.2Z"></path>
  <path class="cls-4" d="M410,223.5h-3.2V359.4H410Z"></path>
  <path class="cls-4" d="M370.7,223.5h-3.2V359.4h3.2Z"></path>
  <path class="cls-4" d="M331.4,223.5h-3.2V359.4h3.2Z"></path>
  <path class="cls-4" d="M292,223.5h-3.2V359.4H292Z"></path>
  <path class="cls-4" d="M252.7,223.5h-3.2V359.4h3.2Z"></path>
  <path class="cls-4" d="M213.4,223.5h-3.2V359.4h3.2Z"></path>
  <path class="cls-4" d="M174.1,223.5h-3.2V359.4h3.2Z"></path>
  <path class="cls-4" d="M134.8,223.5h-3.2V359.4h3.2Z"></path>
  <path class="cls-4" d="M95.5,223.5H92.3V359.4h3.2Z"></path>
  <path class="cls-4" d="M56.2,223.5H53V359.4h3.2Z"></path>
  <path class="cls-4" d="M16.9,223.5H13.7V359.4h3.2Z"></path>
  <path class="cls-5" d="M131.9,97.8c-4.1-13.6-6.3-20.1,1.1-24.1s29.9-1.3,40.4,1.2,12,5.1,5.1,15.4Z"></path>
  <path class="cls-6" d="M127.1,220.1c-1.6-40.4-.6-74,.7-91.9-6.7-4.4-9.8-7.8-11.1-9.7a2,2,0,0,1-.4-1.3,1.66,1.66,0,0,1,.5-1.2c10.6-13.3,19.7-24.9,29.2-30.3s22.5-6.8,43.2,13.8a1.61,1.61,0,0,1,.3.9,1.8,1.8,0,0,1-.4.9,57,57,0,0,1-5.2,4.6c4.2,7.5,10.3,18.9,10.3,18.9H199a11.61,11.61,0,0,1,11.6,11.6c.1,9.3-2.1,20.5-6.4,34.9,19.2,15.6,14.5,48.7,14.5,48.7Z"></path>
  <path class="cls-7" d="M204.2,171.3c.6-2.1,1.2-4,1.7-6l-15.1,8.4s-23.9-16.1-64-26.1c-.7,18.6-.8,43.8.3,72.5h91.6S223.4,186.9,204.2,171.3Z"></path>
  <path class="cls-8" d="M208,175a33.21,33.21,0,0,0-3.8-3.7c.6-2.1,1.2-4,1.7-6l-15.1,8.4s-23.9-16.1-64-26.1c-.1,2.3-.2,4.8-.2,7.3,30.7,12.7,47.2,34.5,49.1,65.2h22.7C202.4,202.5,205.6,187.1,208,175Z"></path>
  <path d="M138.9,135.9h.4c.2-.2.4-.3.5-.6l8.7-28.1c.1-.1.1-.2.1-.4a.6.6,0,0,0-.1-.4c-.1-.1-.1-.2-.2-.3s-.2-.2-.3-.2h-.4c-.1,0-.3.1-.4.1l-.3.3c-.1.1-.1.2-.1.4l-8.4,27.2a61.45,61.45,0,0,1-10.4-5.6h-.2c0,.6-.1,1.3-.1,1.9a75.32,75.32,0,0,0,10.9,5.7Z"></path>
  <path d="M176.1,90.7l-35.8,2.6C180.3,100.9,182,102,176.1,90.7Z"></path>
  <path class="cls-9" d="M195.9,195.5,192.1,160a2.6,2.6,0,0,0-.9-1.6,2.72,2.72,0,0,0-1.7-.6h-3.8l-1.7-3.3a4.27,4.27,0,0,0-2.3-1.9,5.45,5.45,0,0,0-3.1,0,4.48,4.48,0,0,0-2.3,2.2c-7.5,16.1-11.2,42.6-11.9,47.6a1,1,0,0,0,.2.7,1,1,0,0,0,.5.4l21.6,6.9a.6.6,0,0,0,.4.1c.1,0,.3-.1.4-.1s.2-.2.2-.3v-.4l-.8-10.1,8-2.5a1.56,1.56,0,0,0,.8-.6A1.8,1.8,0,0,0,195.9,195.5Z"></path>
  <path class="cls-10" d="M177.4,167.2l-3.3,34.5"></path>
  <path d="M167.2,116.7c1.4-.6,1.6-3.2.6-5.8s-3.1-4.4-4.5-3.8-1.6,3.2-.6,5.8S165.8,117.3,167.2,116.7Z"></path>
  <path class="cls-11" d="M177.5,122.2c1.8-3.4,1.6-7-.5-8.1s-5.2.8-6.9,4.1-1.6,7,.5,8.1S175.7,125.6,177.5,122.2Z"></path>
  <path class="cls-11" d="M192.2,122.3c1.8-3.4,1.6-7-.5-8.1s-5.2.8-6.9,4.1-1.6,7,.5,8.1S190.4,125.6,192.2,122.3Z"></path>
  <path d="M182.1,116.2c.9-.4.8-2.7-.2-5.3s-2.6-4.3-3.5-4-.8,2.7.2,5.3S181.2,116.6,182.1,116.2Z"></path>
  <path class="cls-12" d="M191.6,142.4a33.47,33.47,0,0,1-21.2-7.5c-6.2-5.1-3.7-5.7.2-5.8s22.6.6,28,1.4S205,142,191.6,142.4Z"></path>
  <path class="cls-13" d="M191.6,142.4a33.47,33.47,0,0,1-21.2-7.5c-6.2-5.1-3.7-5.7.2-5.8s22.6.6,28,1.4S205,142,191.6,142.4Z"></path>
  <path class="cls-14" d="M191.2,153.6l-.4-3.7a20.94,20.94,0,0,0,8.1-2.3"></path>
  <path class="cls-9" d="M195.3,141.9c-5.4-5.2-12.7-9.1-26.2-8.2C180.7,144.4,192.8,142.6,195.3,141.9Z"></path>
  <path class="cls-11" d="M178.1,118.7h6.1"></path>
  <path class="cls-15" d="M168.9,119.9l-25.8-10.5a3.21,3.21,0,0,0-1.7-.2,4.42,4.42,0,0,0-1.6.6,3.74,3.74,0,0,0-1.2,1.3,3.29,3.29,0,0,0-.4,1.7h0a3.08,3.08,0,0,0,.6,1.9,3.74,3.74,0,0,0,1.5,1.3l1.7.8"></path>
  <path class="cls-16" d="M163.5,106.8a17.41,17.41,0,0,0,6-.8"></path>
  <path class="cls-16" d="M178.5,106.8a8,8,0,0,0,3.7-.8"></path>
  <path class="cls-5" d="M135.3,94.3c35.7-.5,47.8-4.5,58-8.2s9.2-6.6,1.4-6.3S160.2,90.3,135.3,94.3Z"></path>
  <path class="cls-6" d="M126.5,158.1l-.2,9.8,4.9-1.9s26.1-10.9,32.3-12.4,12.1,1.4,21,4.8,6.6,6.5,3.8,9.5-2.7,2.8-17.4,2.8c-28.1,20.3-36.7,32.2-48.2,32.2-6.9,0-12.8-3.1-17.2-16.7S109.3,166.4,126.5,158.1Z"></path>
  <path class="cls-17" d="M224.4,169.3l-15-18.1-25.6,25.5,18.1,15.1c-.2,1.7,0,3,.9,3.9,2.7,2.7,10.6-.8,17.7-7.8s10.5-15,7.8-17.7C227.4,169.3,226.1,169.1,224.4,169.3Z"></path>
  <path class="cls-17" d="M200,167.4c7-7,11.2-14.2,9.3-16.1s-9.1,2.3-16.1,9.3-11.2,14.2-9.3,16.1S192.9,174.4,200,167.4Z"></path>
  <path class="cls-8" d="M198.2,165.7c6.4-6.4,10.6-12.4,9.5-13.5s-7.1,3.2-13.5,9.5-10.6,12.4-9.5,13.5S191.9,172,198.2,165.7Z"></path>
  <path class="cls-6" d="M223,161.7c4.3.6,6,4.5,4.3,9.7a2.81,2.81,0,0,1-1,1.4,3.15,3.15,0,0,1-1.5.8,3.22,3.22,0,0,1-1.7-.1,3.77,3.77,0,0,1-1.5-.9,6,6,0,0,1-1.7-3.8,6.69,6.69,0,0,1,1.1-4.1Z"></path>
  <path class="cls-6" d="M215.5,158.7c-.2,3.7-2.4,7.4-4,9.8a4.65,4.65,0,0,0-.6,2.3,3.46,3.46,0,0,0,1,2.1l.8.7a2.36,2.36,0,0,0,.9.6,3.59,3.59,0,0,0,1.1.2,4.25,4.25,0,0,0,1.1-.2,2.84,2.84,0,0,0,.9-.6,20.92,20.92,0,0,0,6.1-10.3c1.2-5.4-2.7-9.2-9.5-7.4Z"></path>
  <path class="cls-5" d="M135.3,94.3l12.2-1,29.3-5.8-7.3-7.2H134.6Z"></path>
  <path class="cls-17" d="M194.4,131.2l-7-.4c.8,4.2,2.8,6.4,4.5,5.7S194.2,132.1,194.4,131.2Z"></path>
  <path class="cls-17" d="M172.8,130.3c.9,4.8,2.7,7.3,4.4,6.5s2.1-4.8,2.4-6.4Z"></path>
  <path class="cls-18" d="M465.4,223.5H4.3"></path>
  <path class="cls-9" d="M184.4,174.7a1,1,0,0,0,.4.5c.1,0,.1,0,.1.1a52.82,52.82,0,0,0,13.4-9.7v-.2l-3.9-3.8-3.2-3.3-4.2.2-8.2-3.1-.3.7C182,157.3,182.7,169.9,184.4,174.7Z"></path>
  <path class="cls-19" d="M185.7,157.9a97.52,97.52,0,0,1,4.5,10.5,1.38,1.38,0,0,0,.3.4.76.76,0,0,0,.5.2h.3a1,1,0,0,0,.5-.4,1.48,1.48,0,0,0,.1-.7c-.1-.3-2.3-6.1-4.3-10Z"></path>
  <path class="cls-19" d="M186.9,199.7h-.2L179,202a.76.76,0,0,0-.4.2.52.52,0,0,0-.2.4v.5c.1.2.1.3.3.4l6.8,5.9a.22.22,0,0,0,.2.2.37.37,0,0,0,.3.1.6.6,0,0,0,.4-.1c.1-.1.2-.1.3-.2s.1-.2.2-.3.1-.2,0-.4a.37.37,0,0,0-.1-.3c-.1-.1-.1-.2-.2-.3l-5.6-4.9,6-1.8Z"></path>
  <path class="cls-14" d="M126,167.6l-14.1,6.7"></path>
  <path class="cls-20" d="M180.9,82.8a463.1,463.1,0,0,1-46.8,9.9"></path>
  <path class="cls-8" d="M193.4,178.6l10.8,9.9a1.85,1.85,0,0,0,1.2.5,3.08,3.08,0,0,0,1.3-.3,4.35,4.35,0,0,0,.6-.7,2.35,2.35,0,0,0,.2-.8,2.77,2.77,0,0,0-.1-.9,1.79,1.79,0,0,0-.5-.7l-10.5-10.1a1.66,1.66,0,0,0-1.2-.5,1.64,1.64,0,0,0-1.2.2l-.3.2a4.35,4.35,0,0,0-.7.6,1.61,1.61,0,0,0-.3.9,2.77,2.77,0,0,0,.1.9A5.55,5.55,0,0,0,193.4,178.6Z"></path>
  <path class="cls-14" d="M220.5,170.5a16.76,16.76,0,0,0,3.3-8.3"></path>
  <path class="cls-21" d="M309.2,32.2a8.05,8.05,0,0,0-6.4-9.5,8.16,8.16,0,0,0-9.7,6.1,8.23,8.23,0,0,0,16.1,3.4Z"></path>
  <path class="cls-22" d="M362.7,106.5c7.3.4,16.1,3.4,27.1,15.6,6.2-6.2,9.2-4.5,17.5,2.6s26.1,20.6,30.5,25.1,7.7,14.2-4.3,21.5-33.3-6.1-44.5-13.9-26.3-16.9-26.3-16.9v-34Z"></path>
  <path class="cls-23" d="M404,121.9a84.08,84.08,0,0,1,7.3,15.1c2.3,7.2-.6,11.4-6.5,16.3s-8.3,3.8-11.4,1.3a1.27,1.27,0,0,0-.6-.1.85.85,0,0,0-.5.3,1,1,0,0,0,0,1.2,9.3,9.3,0,0,0,5.7,2.3c2.5,0,5-1.2,8-3.7,5.1-4.3,9.9-9.2,6.9-18.2a65.23,65.23,0,0,0-4.1-9.4,11.09,11.09,0,0,0-2.5-3.2Z"></path>
  <path class="cls-16" d="M388.9,151.8c5.4,5.2,18.3,14.4,18.3,14.4"></path>
  <path class="cls-24" d="M335.9,105.2c25.9-7.4,41.5-32.2,34.8-55.6s-33-36.2-58.9-28.9C286,28.2,270.4,53,277,76.3S310,112.6,335.9,105.2Z"></path>
  <path class="cls-17" d="M289.8,58.2c0,9.6,4.6,18.1,10.3,19s7.1-4.1,7.3-13.4c0-2.4.1-4.8.3-7.3.6-8.6-2.5-13.3-7.6-14.1S289.8,48.6,289.8,58.2Z"></path>
  <path class="cls-19" d="M332.2,58.8a8,8,0,0,1-1.7-4.5,8.26,8.26,0,0,1,1.1-4.6c8-13.6,15.3-14.1,20.5-13.8s9.2,5.2,4.9,17.6c6.1,6.6,3.6,12.7-5.1,13.5S338.5,67.1,332.2,58.8Z"></path>
  <path class="cls-22" d="M389.4,192.1c1.2-32.8-9.3-37-10.3-46.8s-2-23-12.8-37.2c0,0,1.3-13.3,2-22.2a1.64,1.64,0,0,0-.2-1,2.36,2.36,0,0,0-.6-.9,4.05,4.05,0,0,0-.9-.5,3.4,3.4,0,0,0-1-.1,107.41,107.41,0,0,1-21.2,1.3c-12.2-.4-28.7-1.6-46.3,15.5l5.7,8-.4.7a3,3,0,0,0-.5,1.6,2.85,2.85,0,0,0,.2,1.6,3.92,3.92,0,0,0,2.3,2.3l1.1.4s-16.1,9.7-11.3,31.6-.3,43.1,7.8,49.6a11.77,11.77,0,0,0,5.7,2.5,12.53,12.53,0,0,0,6.1-.6l37.1,19.8c13.5,14.9,32.7,31.6,32.7,31.6l-14.8,35.3,15.6,39.3c13.3-32.6,30.8-64.6,33.9-79.4S412.4,221,389.4,192.1Z"></path>
  <path class="cls-25" d="M374.8,303.8c7.4-22.9,15.7-43.6,18.2-49.6a2.46,2.46,0,0,0,.1-1.7,2.19,2.19,0,0,0-.8-1.4c-21.6-20.7-26.7-27.8-26.7-27.8"></path>
  <path d="M317.7,178l-13.4-9.1s8.1-11.1,12.6-17.8l1.1-1.7c0-.1.1-.2.2-.3s.2-.1.3-.2.2-.1.3,0a.37.37,0,0,1,.3.1.78.78,0,0,1,.4.4,1.27,1.27,0,0,1,.1.6C316.7,167.7,317.7,178,317.7,178Z"></path>
  <path class="cls-23" d="M368.1,87.6c-7.1,2.4-16.5,2.3-27.7,2s-22.5-.6-41,12.4l3,4.3c17.1-12.1,26.3-11.8,37.9-11.5s19.8.4,27.4-1.6C367.8,91.3,368,89.4,368.1,87.6Z"></path>
  <path d="M362.7,190.5a1.42,1.42,0,0,0,.6-.2.71.71,0,0,0,.3-.6c.2-16.1-5.9-32.5-8.5-38.8a65.46,65.46,0,0,1-4.9-20.4c-.8-9.1-2.7-16.2-3.9-19l3.4-26.8h-1.8l-3.4,27.1v.2c1.1,2.4,3.1,9.5,3.9,18.7a68.51,68.51,0,0,0,4.9,20.9c2.7,6.2,8.7,22.3,8.5,38a1.06,1.06,0,0,0,.9.9Z"></path>
  <path class="cls-22" d="M420.5,346.5a4.36,4.36,0,0,0-1.4-1.3,4.07,4.07,0,0,0-1.8-.5c.6-3.6-.1-6.6-4.8-7.7a33.72,33.72,0,0,0-16.4.5c-9.2-23.6-27.4-85.8-40.1-131.2l-41.2-8.4c-.4,11.3,7,36.2,12.4,57.6s17.3,66.2,20.6,82.4c2,9.8,4.9,21.5,4.9,21.5h38.2c11.2,0,25.6-4.4,28.4-6.6S421.5,348.3,420.5,346.5Z"></path>
  <path class="cls-25" d="M359.2,336.3c-11.8-37.2-29-87.2-39.5-138"></path>
  <path class="cls-22" d="M339.6,192.1c.2-2.9-3.8-13.8-8.6-21.7s-7.2-13.5-11.7-10.9-15,9.4-15,9.4,8.1-11.1,12.6-17.8c9.7-14.6,6.3-34.7-10.4-36.3-13.7,7.6-15.8,14.1-28.8,37S257,199.1,271,209.2s27.5,3.1,52.7-8C334.6,196.5,339.5,195.1,339.6,192.1Z"></path>
  <path class="cls-23" d="M323.9,199.7c-2.8-1.3-5.3-5.5-8.3-14.1-5-14.5-6.3-18.9-3.2-21.9l-1.9,1.2a5.73,5.73,0,0,0-1.1,1.1,2.82,2.82,0,0,0-.4,1.5c-.1,3.8,1.8,9.4,5,18.7,2,5.8,3.8,9.7,5.7,12.1a5.36,5.36,0,0,0,3,2.1,5.55,5.55,0,0,0,3.6-.3A4.88,4.88,0,0,1,323.9,199.7Z"></path>
  <path class="cls-16" d="M331,170.4c-4.7-7.9-7.2-13.5-11.7-10.9s-27.5,17.1-27.5,17.1"></path>
  <path class="cls-26" d="M382.7,112.9a338.42,338.42,0,0,1-3.5-62.8,4.06,4.06,0,0,0-.4-1.9,6.1,6.1,0,0,0-1.2-1.6,3.7,3.7,0,0,0-1.8-.8,4.52,4.52,0,0,0-2,.1l-24.9,7"></path>
  <path class="cls-17" d="M366.7,114.6c2.4,4.6,6.7,12.8,7.6,15.5.3,4.2.1,11.4.1,13.6a1.42,1.42,0,0,0,.2.6.55.55,0,0,0,.5.3c6.8,1,9.7,1.1,12.5.8A61.71,61.71,0,0,0,397,143a.9.9,0,0,0,.6-.6,2.77,2.77,0,0,0,.1-.9c-2.5-8.2-4.2-14.1-4.2-14.1-.5-10.2-.6-18.3-.6-21a1,1,0,0,0-1-1c-9.3-.6-12.5-.6-15.9-.4s-4.5,2.2-9.2,7.8a2.47,2.47,0,0,0-.4.9A1.61,1.61,0,0,0,366.7,114.6Z"></path>
  <path class="cls-27" d="M396.7,142.2s1.1.4.3.8a.9.9,0,0,0,.6-.6,2.77,2.77,0,0,0,.1-.9c-2.5-8.2-4.2-14.1-4.2-14.1-.5-10.2-.6-18.3-.6-21a1,1,0,0,0-1-1c-9.3-.6-12.5-.6-15.9-.4a5.37,5.37,0,0,0-2.1.5l8.8,18.6-.6,17.1Z"></path>
  <path class="cls-24" d="M383.2,141.7c1.7,6.1,3.2,10.4,7,11.2s8.3-3.1,14.1-8.9,3.8-10.7,1.3-15.3-2.9-10.4-6-12.8a72,72,0,0,0-12.3-7.2c-3.5-1.5-5.6-1.5-10.9,4.5s-8.4,9.5-7.5,11.9a39.81,39.81,0,0,0,2.4,5c-2.4,2.4-2.4,4.4-1.4,6.9s1.4,4.8,6.5,4.8Z"></path>
  <path class="cls-16" d="M371.5,129l14-13.2"></path>
  <path class="cls-17" d="M384.3,134.2a71.14,71.14,0,0,1-9.8,5.3c-.1,1.9-.1,3.4-.1,4.2a1.42,1.42,0,0,0,.2.6.55.55,0,0,0,.5.3c6.8,1,9.7,1.1,12.5.8A61.71,61.71,0,0,0,397,143a.9.9,0,0,0,.6-.6,2.77,2.77,0,0,0,.1-.9l-.6-2A53.2,53.2,0,0,1,384.3,134.2Z"></path>
  <path class="cls-27" d="M397.1,139.5a53.2,53.2,0,0,1-12.8-5.3l-2,1.3-.2,5.5c0,.1.1.1.1.2s.1.1.2.1l14.3.9s1.1.4.3.8a1.34,1.34,0,0,0,.7-.6c0-.1.1-.3.1-.4a.9.9,0,0,0-.1-.5l-.6-1.9Z"></path>
  <path class="cls-24" d="M322.8,162a34.35,34.35,0,0,0,6.8-12.6c1-3,2.1-7.3,2.5-8.9s2.3-2.5,4.6-2,3.3.9,2.9,5-1.3,13.8-1.3,13.8Z"></path>
  <path class="cls-24" d="M368.8,164.4c-1.5-4.1-2.2-6.2-3.5-7.9s-2.5-2-8.3-2.3c-2.3-.1-6.7,0-9.6.1,5.7-1.5,11.8-2.8,13.1-3.2s3.9-.8,3-3.3-1.7-3.1-3.1-3.1a47.86,47.86,0,0,0-10.7.9,89.45,89.45,0,0,0-15.1,4.3c-2.9,1.2-6.6,6.6-11.8,12.1,2.3,8.1,7.8,20.5,13.4,26.4,7.4-2.9,11.8-9.3,13.6-11.7,9.3-1.6,12.5-.6,17.7.1,3.2.4,3.5-1.9,3.7-3S370.1,168.2,368.8,164.4Z"></path>
  <path d="M292.8,58.3c-.3,4.2,1.1,7.7,3.1,7.9s3-1.4,3.1-5.3a20.53,20.53,0,0,1,.6-4.9c.7-3.5-.8-4.8-2.5-4.9S293.1,54.2,292.8,58.3Z"></path>
  <path class="cls-21" d="M327.1,8.9a8.77,8.77,0,0,1,10,5.7c1.5,4.7,2.8,11.8-5.2,13.1-3.4.5-6.9-1-12.3-5.2-3.9-3.1-8.1-4.2-17.2.5-4.9-3.4-2.5-12.1,10.8-7.7-5.8-7.5-4.1-12.7.1-14.2S323.8.4,327.1,8.9Z"></path>
  <path d="M327.1,23.3c-2.9-3.6-5.3-8.4-7.3-12.5s-4-8.4-6.2-9.7h-.3a5.71,5.71,0,0,0-2.1,1.3l.7-.2c1.9.2,4,4.6,6.3,9.3s4.5,9.1,7.5,12.9a17.22,17.22,0,0,0,3.4,3.2,8.78,8.78,0,0,0,2.8.1h.1A22.73,22.73,0,0,1,327.1,23.3Z"></path>
  <path d="M337.2,24.7a6.09,6.09,0,0,1-1.6,1.6,26.32,26.32,0,0,0-8.3-17.4,6,6,0,0,1,2.3-.1A27.34,27.34,0,0,1,337.2,24.7Z"></path>
  <path class="cls-28" d="M347.4,335.7c.1.8.3,1.5.4,2.2,2,9.8,4.9,21.5,4.9,21.5h38.2c11.2,0,25.6-4.4,28.4-6.6s2.2-4.5,1.2-6.3a4.36,4.36,0,0,0-1.4-1.3,4.07,4.07,0,0,0-1.8-.5c.6-3.6-.1-6.6-4.8-7.7a33.72,33.72,0,0,0-16.4.5c-1.4-3.7-3.1-8.3-4.9-13.6C374.4,323.6,357.3,322.2,347.4,335.7Z"></path>
  <path class="cls-28" d="M347.4,335.7c.1.8.3,1.5.4,2.2,2,9.8,4.9,21.5,4.9,21.5h38.2c11.2,0,25.6-4.4,28.4-6.6s2.2-4.5,1.2-6.3a4.36,4.36,0,0,0-1.4-1.3,4.07,4.07,0,0,0-1.8-.5c.6-3.6-.1-6.6-4.8-7.7a33.72,33.72,0,0,0-16.4.5c-1.4-3.7-3.1-8.3-4.9-13.6C374.4,323.6,357.3,322.2,347.4,335.7Z"></path>
  <path class="cls-7" d="M396.1,337.5l-1.3.3h-.2L383.7,340a1.14,1.14,0,0,1-.3-.8,32.15,32.15,0,0,1-1.3-8.7c-.1-6.1-3.3-6.7-8.8-6.6l.3-.7a10.48,10.48,0,0,1,3.8-4.8,9.39,9.39,0,0,1,5.8-1.7h9.1a2.6,2.6,0,0,1,1.5.4,2.94,2.94,0,0,1,1.2,1,3.69,3.69,0,0,1,.7,1.4,4.33,4.33,0,0,1,.1,1.6c-1.1,4.7-1.4,10.5-.3,14.8C395.7,336.4,395.9,337,396.1,337.5Z"></path>
  <path class="cls-2" d="M357.5,343.6a10.61,10.61,0,0,0-8.3.7,11.63,11.63,0,0,0,.4,1.8,9.17,9.17,0,0,1,3.6-1.3,7.72,7.72,0,0,1,3.7.4c5.6,1.9,9.7,9.2,11.8,14.2h1.9C368.4,354.2,364,345.8,357.5,343.6Z"></path>
  <path d="M420.2,351.9l-.9.9c-2.8,2.2-17.2,6.6-28.4,6.6H368.1V359c26.2-.4,44-11.3,50.1-11.3C420.2,347.7,421.4,350.7,420.2,351.9Z"></path>
  <path class="cls-16" d="M395.1,138.1a9.94,9.94,0,0,0,5.8,3.8"></path>
  <path class="cls-27" d="M351.2,130.4a4.27,4.27,0,0,1-2.7-1,4.32,4.32,0,0,1-1.3-2.6l-.8-9.1h1.8l5.3,8.7a3.08,3.08,0,0,1,.3,1.3,2,2,0,0,1-.4,1.3,3.18,3.18,0,0,1-1,1A1.59,1.59,0,0,1,351.2,130.4Z"></path>
  <path class="cls-16" d="M306.5,114.8h9.8"></path>
  <path d="M362.2,228.4c-1.2-4.3-3-10.4-3-10.4a203,203,0,0,0,22.9-17.4s-8.3,18.4-12,35.5Z"></path>
  <path class="cls-16" d="M384.6,249.3l9.7-.4"></path>
  <path d="M396.1,337.5l-1.3.3h-.2a99.07,99.07,0,0,0-12.8,3.9h-.3c-.2,0-.3-.1-.5-.2s-.2-.3-.3-.4-.1-.2-.1-.3a.37.37,0,0,1,.1-.3c0-.1.1-.2.2-.3s.2-.1.3-.2l2.2-.9a105.24,105.24,0,0,1,12.2-3.4A12.09,12.09,0,0,0,396.1,337.5Z"></path>
  <path d="M369.1,165.2l-.3-.8-.4-1c-8.7-.9-17.8-1.5-26.7-.6-.1,0-.2.1-.3.1s-.2.1-.3.2-.1.2-.2.3v.4c0,.2.1.2.1.3s.1.2.2.3.2.1.3.2h.4C350.9,163.6,360.2,164.3,369.1,165.2Z"></path>
  <path class="cls-17" d="M301.2,53.8l-5.8,2.8,8.1,3.7Z"></path>
  <path class="cls-17" d="M420.2,351.9c.6-.8-.1-1.3-2-1.3-6.1,0-23.9,8.4-50.1,8.8H352.7l-1.1-4.4c12,0,25.1-.2,37.3-4.1s20.3-7.2,28.4-6.2a3.74,3.74,0,0,1,1.8.5,4.36,4.36,0,0,1,1.4,1.3,5.38,5.38,0,0,1,.8,2.8A5,5,0,0,1,420.2,351.9Z"></path>
  <path class="cls-23" d="M388.9,319.9h1.2c2.8,0,4.7.1,5.3.8s.3,1,.1,2a10.46,10.46,0,0,1,.4-1.7,2.83,2.83,0,0,0-.4-1.8,2.36,2.36,0,0,0-1.6-.9h-5c-4.6,0-9.8,0-12.5,5.9a5.66,5.66,0,0,1,1.8.3C380.5,319.8,384.6,319.9,388.9,319.9Z"></path>
  <path class="cls-14" d="M351.2,48.3c-1.3,2.1-3.6,4.5-8.7,5.5,7-.8,10,3.1,10,3.1"></path>
  <path class="cls-28" d="M220.9,359.4H154.4v-14a14,14,0,0,1,3.9-9.7l6.6-6.4a11,11,0,0,0,2-2.8,8,8,0,0,0,.7-3.4v-16a14.25,14.25,0,0,1,11-13.8c10.7-2.7,21.8-3.2,30.9-1.4a14.42,14.42,0,0,1,8.2,5,14.16,14.16,0,0,1,3.2,9v53.5Z"></path>
  <path class="cls-8" d="M171.5,332.6h.4a.9.9,0,0,0,.5-.1c.1-.1.3-.2.3-.3,3-5.8,3-14.8,3-24.4s.9-13.2,7.3-15.6l-3.4.7a6.59,6.59,0,0,0-2.4,1.1,6.84,6.84,0,0,0-1.7,2.1c-1.4,2.8-1.6,6.5-1.6,11.7,0,9.4,0,18.2-2.8,23.6a.37.37,0,0,0-.1.3v.4c0,.1.1.2.2.3S171.4,332.6,171.5,332.6Z"></path>
  <path class="cls-29" d="M220.9,305.9a15,15,0,0,0-3.2-9.1,13.76,13.76,0,0,0-8.2-4.9,73.13,73.13,0,0,0-16.2-.9c-12.8.9-10.9,9-10.9,20.8v10.1a18.94,18.94,0,0,1-2.6,9.6c-1.9,3.1-2.4,6.9-2.4,14.3v13.6H221V305.9Z"></path>
  <path class="cls-4" d="M204.9,343.3c-.6-17.4-8.5-32.6-16.5-47.1a1.69,1.69,0,0,1-.3-1,3,3,0,0,1,.2-1,1.58,1.58,0,0,1,.7-.7,1.93,1.93,0,0,1,1-.3h2a1.92,1.92,0,0,1,1.2.4,2.36,2.36,0,0,1,.9.8c8.2,15.1,16.8,30.8,17.4,48.9.3,9.1-6.6,16.1-15.8,16.1h-6.6C198.3,359.4,205.2,352.4,204.9,343.3Z"></path>
  <path class="cls-4" d="M223.7,343.3c-.6-17.4-8.6-32.6-16.5-47.1a1.69,1.69,0,0,1-.3-1,3,3,0,0,1,.2-1,1.58,1.58,0,0,1,.7-.7,1.93,1.93,0,0,1,1-.3h2a2.66,2.66,0,0,1,1.2.3,1.76,1.76,0,0,1,.8.9c8.3,15.1,16.8,30.8,17.5,48.9a14.7,14.7,0,0,1-1,6.2,15.54,15.54,0,0,1-3.4,5.3,16.44,16.44,0,0,1-5.2,3.5,14.79,14.79,0,0,1-6.2,1.1h-6.6a14.79,14.79,0,0,0,6.2-1.1,15.51,15.51,0,0,0,8.6-8.8A14.7,14.7,0,0,0,223.7,343.3Z"></path>
  <path class="cls-30" d="M207.4,316.3l20.3,3.5c1.6,4.2,2.4,7,2.6,9.7s-2.4,4.2-6.4,5.8a26.66,26.66,0,0,0-7.8,5c-5.8,5.1-10.7,8.2-19.2,8.2-1.7,0-2.9.1-3.9-1a6.93,6.93,0,0,1-1.8-4.3,7.2,7.2,0,0,1,1.3-4.5,15.81,15.81,0,0,1,3.7-3.6,25.86,25.86,0,0,0,7.5-7.6,24.39,24.39,0,0,0,3.5-10.1C207.3,316.9,207.3,316.6,207.4,316.3Z"></path>
  <path d="M223.9,335.3a16.61,16.61,0,0,0,4.7-2.6c1.9-1.8,1.1-3.5-3-3.4s-8.4,3.3-17,8.6-21.4,10.6-11.7,10.6,13.4-3.1,19.2-8.2A26.66,26.66,0,0,1,223.9,335.3Z"></path>
  <path class="cls-31" d="M205.2,310.2c-1.5.3-1.3,2-.5,3.7-1.6,3-.6,4.2,2.2,5.4a47.78,47.78,0,0,0,17.6,2.4c6.1-.6,5.7-2.6,5.1-4.6,2.1-1.8,1.8-3.9-.3-4.8S215.9,307.9,205.2,310.2Z"></path>
  <path class="cls-17" d="M250.3,205.8H224.1v14.3h26.2Z"></path>
  <path class="cls-31" d="M303.6,206.1a14.41,14.41,0,0,1,.1,6.2,13.09,13.09,0,0,1-2.6,5.6,13.74,13.74,0,0,1-10.8,5.3H261.7l-13.4,7.5v-.4c-6.1,0-9.6-2-6.9-24.4-1.2-6.3-6.8-31.1-9.9-49.6-2.8-16.9,3.5-23.1,20.9-32.9,7.4-22,26.6-20.7,30.3-7.5S298.5,185.2,303.6,206.1Z"></path>
  <path class="cls-23" d="M249.9,237.8l-4.6.8a.86.86,0,0,0-.6.3c-.2.1-.3.3-.5.5a1.42,1.42,0,0,0-.2.6,1.7,1.7,0,0,0,.1.7l1,2.5c-13.9.8-26,2-30.8,6.2s-4.8,10.6-7,29.7-5.8,30.5,0,33.1A37.4,37.4,0,0,0,226,315c6.4-.6,7-3.9,8.3-13.8s4.4-31.9,4.4-31.9h50.5c12.5,0,19.9-8.2,21.6-15.2,1.2-5-.4-16.8-3.3-30.8H261.6l-13.4,7.5,1,4.3Z"></path>
  <path class="cls-32" d="M292,223.5c5,25,6,43.8-13,52.4"></path>
  <path class="cls-33" d="M252.7,210.9s2.1,12.3,5,26.9c3.3,16.8,2.4,16.2-20.5,17.7-20.1,1.3-18.3.3-22.5,23.2-1.6,9-4.4,25.3-3.6,34.3,0,0-.9,5.3-.7,6.4"></path>
  <path class="cls-14" d="M238.7,269.3c-11.1-1.7-16.5-11.7-16.5-11.7"></path>
  <path class="cls-14" d="M238.7,269.3a18.12,18.12,0,0,1-5.8-5.2,20.29,20.29,0,0,1-3.4-7.1"></path>
  <path class="cls-9" d="M303.6,206.1c-2.6-10.8-7.2-30.8-11.5-49.5l-22.4-1.7-17.3,12.2-10,13.4-5.1,6.9c1.8,8.6,3.3,15.6,3.9,18.6-2.7,22.4.8,24.4,6.9,24.4l17.7-7.5,41-2.9C305.8,215.5,304.7,210.8,303.6,206.1Z"></path>
  <path d="M257.8,194.8c1.3-7.5.6-13.8-1.5-14.1s-4.8,5.4-6,12.9-.6,13.8,1.5,14.1S256.5,202.3,257.8,194.8Z"></path>
  <path class="cls-19" d="M244.7,176.3c1-1.8,2.1-3.6,3.2-5.2,11.3-16.3,21.9-20.7,32.1-20.7h12.7a4.33,4.33,0,0,1,.5.1.78.78,0,0,1,.4.4c.1.2.2.3.2.5a1.27,1.27,0,0,1-.1.6l-1.7,4.6c-19.5,0-26.4-.6-42.6,16.4l-7.1,7.5Z"></path>
  <path d="M306.8,220H273.7c-7.4,0-16.5-.4-25.6,10.4l1.1,4.7c5.3-5.1,10.2-7.3,20.8-7.3h38.4Z"></path>
  <path class="cls-17" d="M249.5,173.6c-6.7,1.2-12,4.7-15,10.9a13.94,13.94,0,0,1-3.6,4.4l-18,13.1a10.4,10.4,0,0,0-4,6,9.81,9.81,0,0,0,1.2,7.1,10.34,10.34,0,0,0,3.6,3.6,9.58,9.58,0,0,0,5,1.3h7.5c15.6-8.7,22.8-14.6,26.5-18s7.8-9.5,7.1-16.5S257.1,172.2,249.5,173.6Z"></path>
  <path class="cls-31" d="M255.1,121.9c-2.4-4-5.6-9.3-6.8-11.8s-4.1-1.9,0,9.3c-10-3.8-12.1-2.4-12.6-1s1.7,2.1,5.9,4.5,8.7,5.3,8.7,5.3Z"></path>
  <path d="M265.5,122.2c1.7-2.1,2.3-4.4,1.3-5.2s-2.1-.4-3.6,1.6a15.07,15.07,0,0,1-2.1,2.3c-1.7,1.6-1.3,2.8-.5,3.5S263.8,124.3,265.5,122.2Z"></path>
  <path class="cls-23" d="M282.5,116s-11.9-5.4-17-8.7-7.7-8.2-5.4-9.5,6.7,1.8,9.8,5.8c-.1-7.1,1.1-8.6,3-8.7s2.1,2.7,2.2,6.7.8,5.6,3.8,8.3A11.24,11.24,0,0,1,282.5,116Z"></path>
  <path class="cls-17" d="M238.8,149.2c-2.8,0-5.2-2.4-3-6.6s9.4-8.4,12.9-10,5.1,0,5.2,1.2-.4,3-2.9,6.2S243.9,149.2,238.8,149.2Z"></path>
  <path class="cls-7" d="M241,148.9l-1.7.3-2.4-8.2,1.4-1.5Z"></path>
  <path class="cls-7" d="M247.2,144.5l-1.4,1.4L243,135.8l1.5-1Z"></path>
  <path class="cls-7" d="M252.8,137.5l-1.3,1.8-2-7,1.7-.3Z"></path>
  <path class="cls-14" d="M250.6,131.1a45.31,45.31,0,0,0,5.7,2.3"></path>
  <path class="cls-14" d="M248.1,242.5l11,13.4"></path>
  <path class="cls-23" d="M256.7,238.5h-3.9l-1.2-5.5-1.1-5.1c1-1,2.1-1.9,3.2-2.8l1.3,5.6Z"></path>
  <path class="cls-23" d="M274,233.2h-3.9l-1.2-5.4-1.6-7.6h3.9l1.6,7.7Z"></path>
  <path class="cls-23" d="M305.9,233H302l-1.2-5.2-1.6-7.8h3.9l1.6,7.8Z"></path>
  <path class="cls-17" d="M295.2,169.8a11.75,11.75,0,0,0-6.7-2.5c-5.2,0-8.1,5.1-9.1,10a3.74,3.74,0,0,1-1.2,2,3.49,3.49,0,0,1-2.2.8h-.7a5,5,0,0,1-1.3-.5,4.74,4.74,0,0,1-1-1,3,3,0,0,1-.5-1.3,3.3,3.3,0,0,1,0-1.4c1.9-9.5,8.1-15.6,15.9-15.6a5.6,5.6,0,0,1,3.5,1.3,5.69,5.69,0,0,1,2,3.2Z"></path>
  <path class="cls-22" d="M303.6,206.1a6.16,6.16,0,0,1,.1,2.7,6.4,6.4,0,0,1-1,2.6,7.21,7.21,0,0,1-1.9,2,8,8,0,0,1-2.5,1.1l-2.5.2c-5.7,0-11.6-3.4-16.2-9.3a3.38,3.38,0,0,1-.6-1.2,6.15,6.15,0,0,1-.1-1.4,2.11,2.11,0,0,1,.5-1.3,2.84,2.84,0,0,1,.9-1,3.38,3.38,0,0,1,1.2-.6,6.15,6.15,0,0,1,1.4-.1,3,3,0,0,1,1.3.5,4.3,4.3,0,0,1,1,.9c3.2,4.1,7.1,6.6,10.6,6.6s5.6-2,7.1-4.6C303.1,204.2,303.4,205.2,303.6,206.1Z"></path>
  <path class="cls-2" d="M296.9,177.5a3.61,3.61,0,0,0-2,.6,3,3,0,0,0-1.2,1.7l-4.2,11.3a4.8,4.8,0,0,0,2.1,5.8,3.36,3.36,0,0,0,1.4.5,2.62,2.62,0,0,0,1.5-.2,5.67,5.67,0,0,0,1.3-.8,3.53,3.53,0,0,0,.8-1.3l2.7-7.3C298.6,184.5,297.8,181.1,296.9,177.5Z"></path>
  <path class="cls-27" d="M291.6,196.9a5.09,5.09,0,0,1-2.1-2.5,4.69,4.69,0,0,1,0-3.3l1.2-3.1a3.92,3.92,0,0,1,2.3-2.3,3.21,3.21,0,0,1,1.7-.2,3,3,0,0,1,1.6.5,4.1,4.1,0,0,1,1.8,2.1,4.47,4.47,0,0,1,0,2.8l-1.6,4.3a3.3,3.3,0,0,1-2.1,2.1,3.89,3.89,0,0,1-1.5.2A7.54,7.54,0,0,1,291.6,196.9Z"></path>
  <path class="cls-34" d="M238.6,212.9a31.57,31.57,0,0,1-10.6,4.7"></path>
  <path class="cls-35" d="M277.3,359.4H259.8c-10.7,0-20.6-8.6-22.1-19.2s5.3-16.2,16.8-18.7l2-.5a6.73,6.73,0,0,0,4-2.6,7,7,0,0,0,1.1-4.7,6.78,6.78,0,0,0-2.1-4.2,7.21,7.21,0,0,0-4.2-2l-2.9-.3c-12.4-1.3-20.6-8.6-22.1-19.2s5.9-18.7,16.3-18.7h17.5c10.7,0,20.6,8.6,22.1,19.2l7.4,52.2C295,351,287.7,359.4,277.3,359.4Z"></path>
  <path class="cls-17" d="M297.6,359.4H280.1c-10.7,0-20.6-8.6-22.1-19.2a15.81,15.81,0,0,1,2.4-11.2,16.55,16.55,0,0,1,9.2-6.8,6.12,6.12,0,0,0,3.4-2.5,6,6,0,0,0,.9-4.1l-.5-3.8a5.75,5.75,0,0,0-1.6-3.2,6.09,6.09,0,0,0-3.1-1.8c-9.1-1.9-16.8-9.6-18.1-18.8a16.58,16.58,0,0,1,16.3-18.7h17.5c10.7,0,20.6,8.6,22.1,19.2l7.4,52.2C315.3,351,308,359.4,297.6,359.4Z"></path>
  <path class="cls-31" d="M293.2,286.9a3.81,3.81,0,0,1-.1,1.5,3.29,3.29,0,0,1-.7,1.3,2.73,2.73,0,0,1-1.2.9,4,4,0,0,1-1.5.3H271.3a4.23,4.23,0,0,1-3-1.2,5.3,5.3,0,0,1-1.6-2.8v-.6a2.57,2.57,0,0,1,.1-1.5,3.29,3.29,0,0,1,.7-1.3,2.73,2.73,0,0,1,1.2-.9,4,4,0,0,1,1.5-.3h18.5a4.62,4.62,0,0,1,3,1.1,5,5,0,0,1,1.6,2.8v.7Z"></path>
  <path class="cls-31" d="M285.2,294.3a2.57,2.57,0,0,1-.1,1.5,3.29,3.29,0,0,1-.7,1.3,2.73,2.73,0,0,1-1.2.9,4,4,0,0,1-1.5.3h-.5a4.23,4.23,0,0,1-3-1.2,5,5,0,0,1-1.6-2.8l-2.2-15.4a3.81,3.81,0,0,1,.1-1.5,3.29,3.29,0,0,1,.7-1.3,2.73,2.73,0,0,1,1.2-.9,4,4,0,0,1,1.5-.3h.5a4.62,4.62,0,0,1,3,1.1,5,5,0,0,1,1.6,2.8Z"></path>
  <path class="cls-35" d="M287.5,317.5v.6a2.19,2.19,0,0,1-.3.5,1,1,0,0,1-.5.4c-.2.1-.4.1-.6.2h-.3a1.66,1.66,0,0,1-1.2-.5,2.4,2.4,0,0,1-.7-1.2l-.9-6.4v-.6a2.19,2.19,0,0,1,.3-.5.55.55,0,0,1,.5-.3,1.27,1.27,0,0,1,.6-.1h.2a2.14,2.14,0,0,1,1.2.4,2.4,2.4,0,0,1,.7,1.2Z"></path>
  <path class="cls-31" d="M287.1,337.7a4.62,4.62,0,0,1-3-1.1,5,5,0,0,1-1.6-2.8v-.6a2.57,2.57,0,0,1,.1-1.5,3.29,3.29,0,0,1,.7-1.3,2.73,2.73,0,0,1,1.2-.9,4,4,0,0,1,1.5-.3h.5a4.82,4.82,0,0,1,3,1.1,4.69,4.69,0,0,1,1.6,2.7v.7a3.81,3.81,0,0,1-.1,1.5,3.29,3.29,0,0,1-.7,1.3,2.73,2.73,0,0,1-1.2.9,4,4,0,0,1-1.5.3Z"></path>
  <path class="cls-24" d="M289.7,352.6h-.5a4.62,4.62,0,0,1-3-1.1,5,5,0,0,1-1.6-2.8v-.9a3.18,3.18,0,0,1,.2-1.4,3.46,3.46,0,0,1,.7-1.2,3.6,3.6,0,0,1,1.2-.8,3.19,3.19,0,0,1,1.4-.3h.5a4.82,4.82,0,0,1,3,1.1,4.69,4.69,0,0,1,1.6,2.7v.7a2.57,2.57,0,0,1-.1,1.5,3.29,3.29,0,0,1-.7,1.3,3.45,3.45,0,0,1-1.2.9A4,4,0,0,1,289.7,352.6Z"></path>
  <path class="cls-2" d="M287.6,337.7h-.5a4.62,4.62,0,0,1-3-1.1,5,5,0,0,1-1.6-2.8v-.6a2.57,2.57,0,0,1,.1-1.5,3.29,3.29,0,0,1,.7-1.3,2.73,2.73,0,0,1,1.2-.9,4,4,0,0,1,1.5-.3h.5a4.82,4.82,0,0,1,3,1.1,4.69,4.69,0,0,1,1.6,2.7v.7a3.81,3.81,0,0,1-.1,1.5,3.29,3.29,0,0,1-.7,1.3,2.73,2.73,0,0,1-1.2.9A4,4,0,0,1,287.6,337.7Z"></path>
  <path class="cls-31" d="M297.1,345.1a4.62,4.62,0,0,1-3-1.1,5,5,0,0,1-1.6-2.8v-.6a2.57,2.57,0,0,1,.1-1.5,3.29,3.29,0,0,1,.7-1.3,2.73,2.73,0,0,1,1.2-.9,4,4,0,0,1,1.5-.3h.5a4.82,4.82,0,0,1,3,1.1,4.69,4.69,0,0,1,1.6,2.7v.7a2.57,2.57,0,0,1-.1,1.5,5.39,5.39,0,0,1-.7,1.3,2.73,2.73,0,0,1-1.2.9,4,4,0,0,1-1.5.3Z"></path>
  <path class="cls-2" d="M297.6,345.1h-.5a4.62,4.62,0,0,1-3-1.1,5,5,0,0,1-1.6-2.8v-.6a2.57,2.57,0,0,1,.1-1.5,3.29,3.29,0,0,1,.7-1.3,2.73,2.73,0,0,1,1.2-.9,4,4,0,0,1,1.5-.3h.5a4.82,4.82,0,0,1,3,1.1,4.69,4.69,0,0,1,1.6,2.7v.7a2.57,2.57,0,0,1-.1,1.5,5.39,5.39,0,0,1-.7,1.3,2.73,2.73,0,0,1-1.2.9A4,4,0,0,1,297.6,345.1Z"></path>
  <path class="cls-24" d="M279.7,345.3h-.6a4.71,4.71,0,0,1-3-1.2,4.32,4.32,0,0,1-1.5-2.8v-.9a3.21,3.21,0,0,1,.1-1.4,2.4,2.4,0,0,1,.7-1.2,2.55,2.55,0,0,1,1.2-.8,3.19,3.19,0,0,1,1.4-.3h.6a4.45,4.45,0,0,1,2.9,1.2,5,5,0,0,1,1.6,2.7v.6a3.79,3.79,0,0,1,0,1.5,3.69,3.69,0,0,1-.7,1.4,2.73,2.73,0,0,1-1.2.9A4,4,0,0,1,279.7,345.3Z"></path>
  <path class="cls-6" d="M117.4,339.4l-9.7-5.4a357.86,357.86,0,0,1,25.1-36.1c-17.9,6.5-36.7,14.6-57.5,14.6H40.5c-2.1-4.3-2.7-8.7-2.7-15.3l42.5-15.5L96.4,285l.5,4.6c15.4-3.9,31.3-8.4,42.8-11.1,14.5-3.4,19.4,3.9,11,16.1C134.5,318.2,117.4,339.4,117.4,339.4Z"></path>
  <path class="cls-36" d="M50.1,293.2c0,8.5,0,14.5,4.1,17.9a5.43,5.43,0,0,0,3.6,1.4H62c-10.2-1.7-10.2-7.2-10.1-19.3v-.8c0-.1-.1-.2-.1-.3l-1.7.6Z"></path>
  <path class="cls-37" d="M117.4,334.9C133,314.3,143,300,147.2,293.3s5.6-10.9-15.6-3.7-37.3,13.7-42,11.9-3-6.6-2.7-15.1"></path>
  <path class="cls-27" d="M55,237.8a170.34,170.34,0,0,1-17.6-35.2,13.84,13.84,0,0,1-.4-6.4,13.69,13.69,0,0,1,2.5-5.8c7.3-8.8,16.9-13.5,29.7-15.7a5,5,0,0,1,3.9,1.1c15.2,13.3,19.7,28.3,22.3,42.9a5.48,5.48,0,0,1-.4,2.5,4.21,4.21,0,0,1-1.6,1.9c-7.5,4.6-11.5,6-11.5,6l1.5,11.1Z"></path>
  <path class="cls-27" d="M69.5,200.5a187.63,187.63,0,0,1,22.3,3.4l4.1,1.1a.71.71,0,0,1,.6.6v.5a.52.52,0,0,1-.2.4l-.9.8,1.6,6.2a8.59,8.59,0,0,1-.4,5.7,9.34,9.34,0,0,1-3.8,4.3l-3.7,2.1Z"></path>
  <path class="cls-24" d="M72.7,207.9c1.9-1.3,1.5-5.2-.8-8.6s-5.8-5.1-7.7-3.7-1.5,5.2.8,8.6S70.8,209.2,72.7,207.9Z"></path>
  <path d="M84.5,194c-1.2-1.1-2.5-1.4-3-.9s-.2,1.3.9,2.1l1.3,1.3c.9,1,1.6.8,2,.3S85.7,195,84.5,194Z"></path>
  <path class="cls-27" d="M44.8,185.1c-1.6-16.1,0-21.5,3.4-26.2s5.4-3.3,4.8,2.9a89,89,0,0,0,.1,14.6,68.26,68.26,0,0,1,12.7-20.6,12.36,12.36,0,0,1,6.2-4.1c2.4-.6,3.7.8,3,3.1-1.2,3.9-4.1,10.1-11.9,21.2l.8,4.4Z"></path>
  <path class="cls-22" d="M91.5,247.3c8.5,2.9,2.5,29.5,2.5,29.5l1.2.9a5.54,5.54,0,0,1,2,3,5,5,0,0,1-.4,3.6l-.4.7c-5.9,0-9.8.5-17.8,6.2s-13.1,6-21.3,6H37.8v-6.6c-7.3-2.9-7.9-6.4-5.1-10.9,1.5-2.6,3.9-6.2,5.7-8.9a8.47,8.47,0,0,0,1.4-3.4,11.48,11.48,0,0,0,0-3.7c-1.6-8.6-.3-13.7-.3-13.7l21.2-5.7,26.9-1.1Z"></path>
  <path d="M90.9,271.8c2.6-.7,3.5-5.7,2-11.2s-4.7-9.4-7.3-8.7-3.5,5.7-2,11.2S88.3,272.5,90.9,271.8Z"></path>
  <path class="cls-17" d="M103.9,334.6c2.4-2.5,7.6-6.7,7.6-6.7,3.3,0,8.3.6,10.5,9.7l2.7,10.7c10.3,1.9,10.4,4.8,9,8.6v1.7a1.42,1.42,0,0,1-.2.6.73.73,0,0,1-.6.2H115.7Z"></path>
  <path class="cls-24" d="M132.9,359.4a1.42,1.42,0,0,0,.6-.2,1.07,1.07,0,0,0,.2-.6v-1.7c-6.8,0-11.8.7-14.3-3.7a139.93,139.93,0,0,1-7.1-16.4c-.9-2.6-2.8-5.7-5.7-4.8l-2.7,2.6,11.8,24.8Z"></path>
  <path d="M125.6,359.4a10.56,10.56,0,0,1-5.2-1.3,11.23,11.23,0,0,1-3.9-3.6c-3.7-5.6-6-12.3-7.4-16.4s-5.9-5.7-6.3-.5,2.3,9.2,6.5,19.6a3.25,3.25,0,0,0,1.2,1.6,3.61,3.61,0,0,0,2,.6Z"></path>
  <path class="cls-27" d="M91.5,247.3l15.8,5.4c1.6-22.1,8.3-28.4,16.1-46,5.6-12.5,8.2-18.2,9.3-20.4a1.76,1.76,0,0,1,.8-.9,2,2,0,0,1,1.1-.3h.6a2.92,2.92,0,0,1,.9.2,1.79,1.79,0,0,1,.7.5,2.18,2.18,0,0,1,.5.8,2.77,2.77,0,0,1,.1.9,94.17,94.17,0,0,1-4.7,17.3c4.7-3.2,6.8-3.2,9,.1,5.4-2.8,7.4-2.9,9.3,1.3s1.6,5,.6,8.4-2.5,3.7-4.8,3.7c0,23.2-1.5,31.9-12.4,47.5-9.7,13.9-10.2,12.2-23.4,8-7.6-2.4-15.1-5.1-20-7a12.72,12.72,0,0,1-6.7-5.6,13.17,13.17,0,0,1-1.6-8.7C83.6,248.3,86.4,245.6,91.5,247.3Z"></path>
  <path class="cls-17" d="M91.5,247.3c.5-.6,1-1.3,1.5-2a2.08,2.08,0,0,0,.5-1.2,3.3,3.3,0,0,0,0-1.4,2.73,2.73,0,0,0-.6-1.2,2.84,2.84,0,0,0-1-.9C64.6,225.6,55,223.8,40,223.8c-9.7,0-9.2,2.5-8.3,7.1-6.9,6.4-6.8,8.6-2,14.9s6.3,8.8,10.8,8.8,15,.1,24.2-4.6S78.3,242.9,91.5,247.3Z"></path>
  <path d="M91.1,202c-11.1-1.9-22.4-3.1-22.5-3.1h-.3c-.1,0-.2.1-.3.2s-.2.2-.2.3-.1.2-.1.3,0,.5.2.6a1,1,0,0,0,.5.4c.2,0,12,1.2,23.4,3.2C91.6,203.3,91.4,202.7,91.1,202Z"></path>
  <path class="cls-14" d="M68.8,198.4c-.6.9-1.1,1.8-1.6,2.7"></path>
  <path class="cls-14" d="M107.3,252.7l6.6,1.9"></path>
  <path class="cls-38" d="M50.4,183.7a4.87,4.87,0,0,1-.4,1.1,1.38,1.38,0,0,1-.3.4.76.76,0,0,1-.5.2h-.3c-.1,0-.2-.1-.3-.2s-.2-.2-.2-.3-.1-.2-.1-.3a.37.37,0,0,1,.1-.3c.1-.3,2.2-6.5,4.1-10.9a.78.78,0,0,1,.4-.4c0,1.2.1,2.3.2,3.5S51,181.9,50.4,183.7Z"></path>
  <path class="cls-5" d="M143.8,248a6.24,6.24,0,0,0,.3-3.3,8.36,8.36,0,0,0-1.2-3.1,6.73,6.73,0,0,0-1.5-1.4,7.35,7.35,0,0,0-4.1-1,8.24,8.24,0,0,0-4,1.3c.6-3.4,1.4-9.6.8-14.3s-2.4-4.1-3.5-4.3c-3.2-.6-7.6,2.8-11.5,8.9-.7-3.3-1.7-4.9-3.3-5.3a2,2,0,0,0-1.3.2,2,2,0,0,0-.9.9l-1.5,3.6c2-3,3.1-3,3.4-3s1.6.8,2.3,6.2c0,.2.1.3.2.5s.3.2.5.2a1.27,1.27,0,0,0,.6-.1,1.38,1.38,0,0,0,.4-.3c4.1-7.5,8.5-10.5,10.8-10.1s1.9,1.7,2,2.9c.9,6.1-1.1,15.8-1.1,15.9a.75.75,0,0,0,.1.5,1.38,1.38,0,0,0,.3.4,1.27,1.27,0,0,0,.6.1.76.76,0,0,0,.5-.2c2.2-2.3,5.6-2.9,7.7-1.5s3.1,6.5.8,12.8A40.06,40.06,0,0,0,143.8,248Z"></path>
  <path class="cls-39" d="M127.2,207.1c3.4-1.9,4.6-3,7.6,0,4-2.1,4.8-2.1,7,1.1"></path>
  <path d="M148.6,217.9c-.1-2.8-.4-7.1-.5-7.2a.37.37,0,0,0-.1-.3c0-.1-.1-.2-.2-.3s-.2-.1-.3-.2h-.3a.37.37,0,0,0-.3.1c-.1,0-.2.1-.3.2s-.1.2-.2.3v.3c0,.1.4,4.4.4,7.2v.2c0,.1,0,.1.1.1h1.6Z"></path>
  <path d="M149.7,214.5h-2.2a.37.37,0,0,1-.3-.1c-.1,0-.2-.1-.3-.2s-.1-.2-.2-.3-.1-.2-.1-.3a.86.86,0,0,1,.3-.6,1.42,1.42,0,0,1,.6-.2h2.2a1.42,1.42,0,0,1,.6.2.71.71,0,0,1,.3.6.37.37,0,0,1-.1.3c0,.1-.1.2-.2.3s-.2.2-.3.2A.37.37,0,0,1,149.7,214.5Z"></path>
  <path class="cls-39" d="M118.5,272.4q3.15-.15,6.3-.6"></path>
  <path d="M54.5,294.2c-11.4-1.4-16.5-3.5-16.6-3.5h-.1v1.8c1.7.6,6.8,2.2,16.5,3.5h.1a1.42,1.42,0,0,0,.6-.2.71.71,0,0,0,.3-.6v-.4c0-.1-.1-.2-.2-.3s-.2-.2-.3-.2A.37.37,0,0,0,54.5,294.2Z"></path>
  <path class="cls-14" d="M96.9,289.6a15.61,15.61,0,0,0-6.7,4.2"></path>
  <path class="cls-14" d="M133.7,297.9a100.48,100.48,0,0,0,11.7-6.2"></path>
  <path class="cls-14" d="M135.7,297l5.3.2"></path>
  <path class="cls-40" d="M32.6,230.4c16.6-1.6,28.4,2.2,44.7,9.5-16.3-1.1-35.5-1.7-35.5-1.7"></path>
  <path class="cls-7" d="M28.1,312.5H94.7a3.25,3.25,0,0,1,2.5,1.1,3.58,3.58,0,0,1,1.1,2.5v43.3H24.5V316.1a3.25,3.25,0,0,1,1.1-2.5A3.25,3.25,0,0,1,28.1,312.5Z"></path>
  <path class="cls-28" d="M91.7,312.5h3a3.25,3.25,0,0,1,2.5,1.1,3.58,3.58,0,0,1,1.1,2.5v43.3H88.1V316.1a3.53,3.53,0,0,1,.3-1.4,4.18,4.18,0,0,1,.8-1.2,3.6,3.6,0,0,1,1.2-.8A5.07,5.07,0,0,1,91.7,312.5Z"></path>
  <path class="cls-28" d="M34.3,345.6h44a2.72,2.72,0,0,1,2.1.9,2.88,2.88,0,0,1,.9,2.1v10.8H31.4V348.6a3.23,3.23,0,0,1,.8-2.1A3.33,3.33,0,0,1,34.3,345.6Z"></path>
  <path class="cls-41" d="M36.3,312.5v46.9"></path>
  <path class="cls-41" d="M76.2,312.5v46.9"></path>
  <path d="M78.7,316.1H33.8a2.48,2.48,0,0,0-2.5,2.5v16a2.48,2.48,0,0,0,2.5,2.5H78.7a2.48,2.48,0,0,0,2.5-2.5v-16A2.48,2.48,0,0,0,78.7,316.1Z"></path>
  <path class="cls-2" d="M87.2,319.5h-.4c-.1,0-.2.1-.3.2s-.2.2-.2.3-.1.3,0,.4a1,1,0,0,0,1,1H98.4v-2H87.2Z"></path>
  <path class="cls-2" d="M86.2,324.8v.4c0,.1.1.2.2.3s.2.2.3.2.3.1.4,0H98.2v-2h-11a.91.91,0,0,0-.7.3A1.33,1.33,0,0,0,86.2,324.8Z"></path>
  <path class="cls-2" d="M86.2,329.2a1,1,0,0,0,1,1H98.3v-2H86.8c-.1,0-.2.1-.3.2s-.2.2-.2.3A1.09,1.09,0,0,0,86.2,329.2Z"></path>
  <path class="cls-2" d="M26.3,320.5a1,1,0,0,1-1,1h-.8v-2h.8a1,1,0,0,1,1,1Z"></path>
  <path class="cls-2" d="M26.3,324.8a1,1,0,0,1-1,1h-.8v-2h.8a1,1,0,0,1,1,1Z"></path>
  <path class="cls-2" d="M26.3,329.2a1,1,0,0,1-1,1h-.8v-2h.8a1,1,0,0,1,1,1Z"></path>
  <path class="cls-5" d="M65.9,317.6H36.6a1.32,1.32,0,0,0-1.3,1.3v13.9a1.32,1.32,0,0,0,1.3,1.3H65.9a1.32,1.32,0,0,0,1.3-1.3V318.9A1.32,1.32,0,0,0,65.9,317.6Z"></path>
  <path class="cls-24" d="M78.3,334.1h-8a.9.9,0,0,0-.9.9v1.2a.9.9,0,0,0,.9.9h8a.9.9,0,0,0,.9-.9V335A.9.9,0,0,0,78.3,334.1Z"></path>
  <path class="cls-6" d="M47.1,319.5a9.2,9.2,0,0,0,18.4,0,12.25,12.25,0,0,0-.2-1.9h-18A6.15,6.15,0,0,0,47.1,319.5Z"></path>
  <path class="cls-6" d="M38,334.1H53a8.85,8.85,0,0,0-3.3-2.8,9,9,0,0,0-4.2-1,10.35,10.35,0,0,0-4.2,1A8.85,8.85,0,0,0,38,334.1Z"></path>
  <path class="cls-42" d="M42.5,3.7A39.11,39.11,0,0,0,32.3.5c-.4.8-1,1.9-1.3,2.7a35.69,35.69,0,0,0-11.3,0c-.4-.9-.9-1.9-1.3-2.7A39.11,39.11,0,0,0,8.2,3.7,43.2,43.2,0,0,0,.8,32.4a40.15,40.15,0,0,0,12.5,6.4A39.92,39.92,0,0,0,16,34.4a27.44,27.44,0,0,1-4.2-2.1,8.74,8.74,0,0,0,1-.8,29.06,29.06,0,0,0,25.1,0,7,7,0,0,0,1,.8,32.91,32.91,0,0,1-4.2,2.1,32.34,32.34,0,0,0,2.7,4.4A41.7,41.7,0,0,0,50,32.4,43.82,43.82,0,0,0,42.5,3.7ZM17,26.7c-2.4,0-4.5-2.3-4.5-5.1s2-5.1,4.5-5.1,4.5,2.3,4.5,5.1S19.5,26.7,17,26.7Zm16.5,0c-2.4,0-4.5-2.3-4.5-5.1s2-5.1,4.5-5.1S38,18.8,38,21.6,36,26.7,33.5,26.7Z"></path>
  <path class="cls-42" d="M67.1,10.3H77.7a15.72,15.72,0,0,1,6.5,1.2,9,9,0,0,1,4,3.4,9.33,9.33,0,0,1,1.3,5,9.66,9.66,0,0,1-1.4,5,9.4,9.4,0,0,1-4.2,3.6,16.21,16.21,0,0,1-7,1.3H67V10.3Zm9.8,14.6a5.52,5.52,0,0,0,4-1.3A4.9,4.9,0,0,0,82.3,20a4.87,4.87,0,0,0-1.2-3.4,5.27,5.27,0,0,0-3.8-1.3H74v9.6Z"></path>
  <path class="cls-42" d="M105.5,29.8a16.07,16.07,0,0,1-4-1.7V23.5a10.06,10.06,0,0,0,3.6,1.7,13.92,13.92,0,0,0,4.4.7,2.81,2.81,0,0,0,1.5-.3c.3-.2.5-.4.5-.6a.91.91,0,0,0-.3-.7,2.82,2.82,0,0,0-1.1-.5l-3.3-.8a7.85,7.85,0,0,1-4-1.9,4.14,4.14,0,0,1-1.2-3.1,4,4,0,0,1,1-2.8,7.71,7.71,0,0,1,2.9-1.9,15.18,15.18,0,0,1,4.5-.7,18.59,18.59,0,0,1,4.2.5,11.86,11.86,0,0,1,3.2,1.3V19a11.74,11.74,0,0,0-3-1.2,13.45,13.45,0,0,0-3.5-.5c-1.7,0-2.6.3-2.6.9a.55.55,0,0,0,.4.6,7.54,7.54,0,0,0,1.5.4l2.7.5a7.82,7.82,0,0,1,4,1.7,4.46,4.46,0,0,1,1.3,3.5,4.51,4.51,0,0,1-2.2,4,10.71,10.71,0,0,1-6.2,1.5A17.09,17.09,0,0,1,105.5,29.8Z"></path>
  <path class="cls-42" d="M124.9,29.2a7.81,7.81,0,0,1-3.5-3.2,8.41,8.41,0,0,1-1.2-4.5,8.41,8.41,0,0,1,1.2-4.5,7.88,7.88,0,0,1,3.6-3.1,12.62,12.62,0,0,1,5.7-1.1,12.08,12.08,0,0,1,6.8,1.8v5.1a11.29,11.29,0,0,0-2.2-1.1,8,8,0,0,0-2.7-.4,7.65,7.65,0,0,0-4,.9,2.76,2.76,0,0,0-1.4,2.5,3.11,3.11,0,0,0,1.4,2.5,7.35,7.35,0,0,0,4,1,8.42,8.42,0,0,0,2.7-.4,12.24,12.24,0,0,0,2.3-1v4.9a13.26,13.26,0,0,1-7,1.8A12,12,0,0,1,124.9,29.2Z"></path>
  <path class="cls-42" d="M144.3,29.2a8.07,8.07,0,0,1-3.6-3.2,8.92,8.92,0,0,1-1.2-4.5,8.41,8.41,0,0,1,1.2-4.5,8.5,8.5,0,0,1,3.6-3.1,14.8,14.8,0,0,1,11.2,0,7.88,7.88,0,0,1,3.6,3.1,8.41,8.41,0,0,1,1.2,4.5,8.41,8.41,0,0,1-1.2,4.5,8.07,8.07,0,0,1-3.6,3.2,12.18,12.18,0,0,1-5.6,1.2A11.89,11.89,0,0,1,144.3,29.2Zm8.3-4.9a3.62,3.62,0,0,0,1-2.7,3.45,3.45,0,0,0-3.7-3.7,3.34,3.34,0,0,0-2.7,1,3.47,3.47,0,0,0-1,2.7,3.82,3.82,0,0,0,6.4,2.7Z"></path>
  <path class="cls-42" d="M176.7,13.8v6a4.53,4.53,0,0,0-2.7-.7,4.29,4.29,0,0,0-3.4,1.4,6.2,6.2,0,0,0-1.2,4.2v5.1h-6.7V13.5h6.6v5.2a9.14,9.14,0,0,1,1.8-4.2,4.1,4.1,0,0,1,3.1-1.4A6.12,6.12,0,0,1,176.7,13.8Z"></path>
  <path class="cls-42" d="M198.9,9.8V29.9h-6.7V26.2a6.17,6.17,0,0,1-2.6,3.1,8.32,8.32,0,0,1-4.3,1.1,7.74,7.74,0,0,1-4-1.1,7.88,7.88,0,0,1-2.6-3.1,10.63,10.63,0,0,1-.9-4.5,10,10,0,0,1,1-4.6,8,8,0,0,1,2.8-3.2,7.22,7.22,0,0,1,4.1-1.1c3.2,0,5.3,1.4,6.4,4.2V9.8Zm-7.7,14.4a3.54,3.54,0,0,0,1-2.6,3.17,3.17,0,0,0-1-2.5,4.06,4.06,0,0,0-2.7-1,3.62,3.62,0,0,0-2.7,1,3.39,3.39,0,0,0-1,2.6,3.39,3.39,0,0,0,1,2.6,3.62,3.62,0,0,0,2.7,1A4.72,4.72,0,0,0,191.2,24.2Z"></path>
  <path class="cls-42" d="M95.2,15.3a3.23,3.23,0,0,0,3.3-3.1,3.31,3.31,0,0,0-6.6,0A3.23,3.23,0,0,0,95.2,15.3Z"></path>
  <path class="cls-42" d="M91.9,17.4a8.65,8.65,0,0,0,6.7,0V30H91.9Z"></path>
</svg>
