<?xml version="1.0" encoding="UTF-8"?>
<svg xmlns="http://www.w3.org/2000/svg" id="Layer_1" data-name="Layer 1" viewBox="0 0 1098.5 380.8">
  <defs>
    <style>.cls-1{fill:#211bb5;}</style>
  </defs>
  <polygon class="cls-1" points="18.2 349.9 17.9 342.4 18.6 342.5 18.8 350 18.2 349.9"></polygon>
  <polygon class="cls-1" points="19.5 350.8 17.5 350.3 17.3 343.8 19.3 344 19.5 350.8"></polygon>
  <polygon class="cls-1" points="20.8 347.4 20.5 339.6 21.2 339.7 21.4 347.5 20.8 347.4"></polygon>
  <polygon class="cls-1" points="22.1 348.1 20.1 347.7 19.9 341.4 21.9 341.5 22.1 348.1"></polygon>
  <polygon class="cls-1" points="15.6 352.8 15.3 343.6 16 343.7 16.2 352.9 15.6 352.8"></polygon>
  <polygon class="cls-1" points="16.9 354.1 15 353.6 14.8 345.5 16.7 345.8 16.9 354.1"></polygon>
  <polygon class="cls-1" points="23.4 344.2 23.2 337.7 23.8 337.7 24 344.3 23.4 344.2"></polygon>
  <polygon class="cls-1" points="24.7 345.2 22.7 344.9 22.6 340.6 24.6 340.7 24.7 345.2"></polygon>
  <polygon class="cls-1" points="26.2 345.1 26 338.9 26.6 339 26.8 345.1 26.2 345.1"></polygon>
  <polygon class="cls-1" points="27.4 343.4 25.4 343.2 25.4 341.2 27.4 341.4 27.4 343.4"></polygon>
  <polygon class="cls-1" points="218 394.9 217 361 218.4 361.1 219.4 395.1 218 394.9"></polygon>
  <polygon class="cls-1" points="220.9 398 216.6 397 215.8 367.6 220.1 368.1 220.9 398"></polygon>
  <polygon class="cls-1" points="224 398.1 222.2 335.2 223.7 335.3 225.5 398.3 224 398.1"></polygon>
  <polygon class="cls-1" points="226.6 385.1 222.2 384.3 221.4 356.1 225.8 356.4 226.6 385.1"></polygon>
  <polygon class="cls-1" points="212.6 409.5 211.4 367.1 212.7 367.3 213.9 409.7 212.6 409.5"></polygon>
  <polygon class="cls-1" points="215.5 415 211.3 413.7 210.2 376.3 214.4 376.9 215.5 415"></polygon>
  <polygon class="cls-1" points="229.6 380.5 227.9 320 229.3 320.1 231.1 380.6 229.6 380.5"></polygon>
  <polygon class="cls-1" points="232.3 371.7 227.8 371.1 226.7 331 231.2 330.9 232.3 371.7"></polygon>
  <polygon class="cls-1" points="28.9 344.5 28.8 339.6 29.4 339.6 29.6 344.5 28.9 344.5"></polygon>
  <polygon class="cls-1" points="30.2 343.3 28.2 343.1 28.2 341.8 30.2 341.9 30.2 343.3"></polygon>
  <polygon class="cls-1" points="31.7 342.8 31.4 334.6 32.1 334.6 32.4 342.8 31.7 342.8"></polygon>
  <polygon class="cls-1" points="33.1 343.5 31 343.3 30.9 338.3 32.9 338.3 33.1 343.5"></polygon>
  <polygon class="cls-1" points="34.4 336.8 34.1 327.5 34.8 327.5 35 336.9 34.4 336.8"></polygon>
  <polygon class="cls-1" points="35.9 341.2 33.8 341.1 33.6 333.3 35.6 333.2 35.9 341.2"></polygon>
  <polygon class="cls-1" points="37.2 335.2 37 329.4 37.7 329.4 37.9 335.2 37.2 335.2"></polygon>
  <polygon class="cls-1" points="38.7 336.5 36.5 336.5 36.4 331.1 38.5 330.9 38.7 336.5"></polygon>
  <polygon class="cls-1" points="49.5 344.2 48.9 323.5 49.6 323.5 50.2 344.3 49.5 344.2"></polygon>
  <polygon class="cls-1" points="51.1 347.7 48.8 347.4 48.4 333.7 50.6 333.6 51.1 347.7"></polygon>
  <polygon class="cls-1" points="54 339.7 51.7 339.7 51.4 328.3 53.6 328.1 54 339.7"></polygon>
  <polygon class="cls-1" points="52.5 340.1 51.9 322 52.7 322 53.2 340.2 52.5 340.1"></polygon>
  <polygon class="cls-1" points="55.5 335 55 320 55.8 320 56.2 335 55.5 335"></polygon>
  <polygon class="cls-1" points="57 334.7 54.7 334.8 54.4 325.2 56.7 324.9 57 334.7"></polygon>
  <polygon class="cls-1" points="65.5 345 64.8 321.8 65.6 321.8 66.3 345.1 65.5 345"></polygon>
  <polygon class="cls-1" points="66.8 334.4 64.4 334.5 64.3 332.7 66.7 332.6 66.8 334.4"></polygon>
  <polygon class="cls-1" points="68.5 333.1 68.2 322.5 69 322.6 69.3 333.2 68.5 333.1"></polygon>
  <polygon class="cls-1" points="70.1 333.6 67.7 333.7 67.5 327.5 69.9 327.3 70.1 333.6"></polygon>
  <polygon class="cls-1" points="89.6 332.8 88.9 310.6 89.8 310.6 90.4 332.8 89.6 332.8"></polygon>
  <polygon class="cls-1" points="91.4 333.3 88.7 333.4 88.3 320.5 91 320.1 91.4 333.3"></polygon>
  <polygon class="cls-1" points="93 324.6 92.6 309.8 93.5 309.8 93.9 324.6 93 324.6"></polygon>
  <polygon class="cls-1" points="94.9 326 92.2 326.2 91.9 316.9 94.6 316.5 94.9 326"></polygon>
  <polygon class="cls-1" points="100.5 320.5 100.2 310.3 101.1 310.3 101.4 320.5 100.5 320.5"></polygon>
  <polygon class="cls-1" points="102.3 319.6 99.6 319.9 99.4 314.1 102.2 313.7 102.3 319.6"></polygon>
  <polygon class="cls-1" points="104.1 310.9 103.8 300.1 104.7 300.1 105.1 310.9 104.1 310.9"></polygon>
  <polygon class="cls-1" points="106.2 316.1 103.3 316.5 103.1 307.8 105.9 307.3 106.2 316.1"></polygon>
  <polygon class="cls-1" points="107.9 305.6 107.6 294.6 108.5 294.5 108.9 305.6 107.9 305.6"></polygon>
  <polygon class="cls-1" points="110 309.4 107.1 310 106.8 301 109.7 300.3 110 309.4"></polygon>
  <polygon class="cls-1" points="111.9 305.4 111.5 292.1 112.5 292.1 112.9 305.4 111.9 305.4"></polygon>
  <polygon class="cls-1" points="113.9 305.4 111 306 110.8 299 113.7 298.2 113.9 305.4"></polygon>
  <polygon class="cls-1" points="129.2 323.9 128 284.2 129.1 284.1 130.2 323.9 129.2 323.9"></polygon>
  <polygon class="cls-1" points="130.9 310.2 127.8 310.7 127.7 309 130.8 308.5 130.9 310.2"></polygon>
  <polygon class="cls-1" points="133.3 316.1 132.6 292.2 133.7 292.2 134.4 316.1 133.3 316.1"></polygon>
  <polygon class="cls-1" points="135.2 308.7 132.1 309.3 132 305.9 135.1 305.3 135.2 308.7"></polygon>
  <polygon class="cls-1" points="137.7 314.6 137 289.9 138.1 289.8 138.8 314.6 137.7 314.6"></polygon>
  <polygon class="cls-1" points="139.7 307.7 136.5 308.2 136.3 301.4 139.5 300.7 139.7 307.7"></polygon>
  <polygon class="cls-1" points="141.9 301.7 141.5 288.7 142.6 288.7 142.9 301.7 141.9 301.7"></polygon>
  <polygon class="cls-1" points="144.1 302.5 140.8 303.1 140.6 295.9 143.9 295.1 144.1 302.5"></polygon>
  <polygon class="cls-1" points="146.3 297.5 146 286.2 147.1 286.1 147.4 297.4 146.3 297.5"></polygon>
  <polygon class="cls-1" points="148.6 298.4 145.3 299.1 145.1 292.6 148.4 291.8 148.6 298.4"></polygon>
  <polygon class="cls-1" points="170.8 307.3 170.2 285.3 171.4 285.3 172 307.3 170.8 307.3"></polygon>
  <polygon class="cls-1" points="173.2 304.4 169.5 305 169.3 297.7 173 297 173.2 304.4"></polygon>
  <polygon class="cls-1" points="96.8 326.1 96.3 308.5 97.2 308.5 97.8 326.1 96.8 326.1"></polygon>
  <polygon class="cls-1" points="98.6 321.7 95.8 322 95.7 318.8 98.5 318.4 98.6 321.7"></polygon>
  <polygon class="cls-1" points="78.8 333.2 78.6 325.2 79.4 325.3 79.6 333.3 78.8 333.2"></polygon>
  <polygon class="cls-1" points="80.4 330.8 77.9 330.9 77.8 330.2 80.4 330 80.4 330.8"></polygon>
  <polygon class="cls-1" points="1.5 346.3 -0.3 345.9 -0.4 343 1.4 343.2 1.5 346.3"></polygon>
  <polygon class="cls-1" points="0.9 347.7 0.3 347.7 0.2 343.5 0.8 343.6 0.9 347.7"></polygon>
  <polygon class="cls-1" points="4 348.5 2.2 348 2.1 344.8 3.9 345.2 4 348.5"></polygon>
  <polygon class="cls-1" points="3.4 350.7 2.9 350.6 2.7 344.7 3.3 344.8 3.4 350.7"></polygon>
  <polygon class="cls-1" points="6.6 351.6 4.7 351 4.6 347 6.4 347.4 6.6 351.6"></polygon>
  <polygon class="cls-1" points="6 352.5 5.4 352.4 5.2 347.5 5.8 347.5 6 352.5"></polygon>
  <polygon class="cls-1" points="11.7 353.7 9.8 353.1 9.7 350.5 11.6 351 11.7 353.7"></polygon>
  <polygon class="cls-1" points="10.5 355 10.3 348.6 10.9 348.7 11.1 355.1 10.5 355"></polygon>
  <polygon class="cls-1" points="14.3 353.4 12.4 352.8 12.4 352.5 14.3 353.1 14.3 353.4"></polygon>
  <polygon class="cls-1" points="13.2 359.6 12.8 346.1 13.4 346.1 13.8 359.7 13.2 359.6"></polygon>
  <polygon class="cls-1" points="41.6 334.7 39.4 334.7 39.4 334.5 41.6 334.4 41.6 334.7"></polygon>
  <polygon class="cls-1" points="40.2 338 40.1 332.3 40.8 332.4 40.9 338 40.2 338"></polygon>
  <polygon class="cls-1" points="45 349.4 42.8 349.1 42.4 335.2 44.6 335.2 45 349.4"></polygon>
  <polygon class="cls-1" points="43.9 361.2 43.1 334.5 43.8 334.6 44.6 361.3 43.9 361.2"></polygon>
  <polygon class="cls-1" points="48.1 352.9 45.9 352.5 45.6 341.2 47.8 341.3 48.1 352.9"></polygon>
  <polygon class="cls-1" points="47.1 368.7 46.3 339.8 47 339.8 47.9 368.8 47.1 368.7"></polygon>
  <polygon class="cls-1" points="60.1 332 57.8 332.1 57.7 329.4 60 329.2 60.1 332"></polygon>
  <polygon class="cls-1" points="58.7 335.9 58.4 326.5 59.2 326.5 59.4 335.9 58.7 335.9"></polygon>
  <polygon class="cls-1" points="63.5 336.2 61.1 336.2 60.9 329.9 63.3 329.7 63.5 336.2"></polygon>
  <polygon class="cls-1" points="62.1 340.6 61.8 331.5 62.6 331.5 62.8 340.7 62.1 340.6"></polygon>
  <polygon class="cls-1" points="73.5 331.6 71 331.7 70.9 329.8 73.4 329.6 73.5 331.6"></polygon>
  <polygon class="cls-1" points="72 336.6 71.7 328.4 72.5 328.4 72.8 336.6 72 336.6"></polygon>
  <polygon class="cls-1" points="76.9 331 74.4 331.2 74.4 330.6 76.9 330.5 76.9 331"></polygon>
  <polygon class="cls-1" points="75.3 333.7 75.1 325.6 75.9 325.6 76.1 333.7 75.3 333.7"></polygon>
  <polygon class="cls-1" points="84 331.1 81.4 331.2 81.4 330.2 84 330 84 331.1"></polygon>
  <polygon class="cls-1" points="82.3 333.9 82.1 324.5 82.9 324.5 83.2 333.9 82.3 333.9"></polygon>
  <polygon class="cls-1" points="87.7 332.5 85 332.6 85 330.4 87.6 330.2 87.7 332.5"></polygon>
  <polygon class="cls-1" points="86.3 344.5 85.8 328.4 86.6 328.4 87.1 344.5 86.3 344.5"></polygon>
  <polygon class="cls-1" points="117.9 303.2 115 303.8 114.9 300.5 117.8 299.8 117.9 303.2"></polygon>
  <polygon class="cls-1" points="116.4 318.6 115.6 292.3 116.6 292.2 117.4 318.6 116.4 318.6"></polygon>
  <polygon class="cls-1" points="122.4 314.2 119.4 314.6 119 302.3 122.1 301.6 122.4 314.2"></polygon>
  <polygon class="cls-1" points="121 334.4 120.1 303.2 121.1 303.2 122 334.4 121 334.4"></polygon>
  <polygon class="cls-1" points="126.7 315.9 123.7 316.3 123.3 305.3 126.4 304.7 126.7 315.9"></polygon>
  <polygon class="cls-1" points="125.4 339.6 124.1 294.8 125.1 294.8 126.4 339.7 125.4 339.6"></polygon>
  <polygon class="cls-1" points="153.4 300.1 149.9 300.8 149.8 295.5 153.2 294.7 153.4 300.1"></polygon>
  <polygon class="cls-1" points="151.6 317.9 150.7 287 151.8 286.9 152.7 317.9 151.6 317.9"></polygon>
  <polygon class="cls-1" points="158.3 305.3 154.8 305.8 154.5 295.8 158 295.1 158.3 305.3"></polygon>
  <polygon class="cls-1" points="156.3 317.4 155.8 297.9 156.9 297.9 157.5 317.4 156.3 317.4"></polygon>
  <polygon class="cls-1" points="163.3 309.9 159.8 310.3 159.4 298.8 163 298.1 163.3 309.9"></polygon>
  <polygon class="cls-1" points="161.2 320.1 160.7 300.9 161.8 300.8 162.4 320.2 161.2 320.1"></polygon>
  <polygon class="cls-1" points="168.2 307.7 164.6 308.2 164.5 302.7 168 302.1 168.2 307.7"></polygon>
  <polygon class="cls-1" points="166.2 319.6 165.5 297.9 166.7 297.9 167.3 319.6 166.2 319.6"></polygon>
  <polygon class="cls-1" points="178.4 306.9 174.7 307.4 174.4 299.8 178.2 299.1 178.4 306.9"></polygon>
  <polygon class="cls-1" points="176.5 326.1 175.5 294.4 176.8 294.4 177.7 326.1 176.5 326.1"></polygon>
  <polygon class="cls-1" points="183.7 308.8 179.9 309.3 179.7 302 183.5 301.4 183.7 308.8"></polygon>
  <polygon class="cls-1" points="181.3 313.5 180.9 299 182.1 299 182.5 313.5 181.3 313.5"></polygon>
  <polygon class="cls-1" points="189.3 316.5 185.4 316.8 185 304.5 188.9 304 189.3 316.5"></polygon>
  <polygon class="cls-1" points="187.1 331.4 186.4 306.2 187.6 306.1 188.4 331.4 187.1 331.4"></polygon>
  <polygon class="cls-1" points="194.7 317.7 190.8 318.1 190.6 311.6 194.5 311.1 194.7 317.7"></polygon>
  <polygon class="cls-1" points="192.2 320.9 191.9 309.4 193.2 309.4 193.5 321 192.2 320.9"></polygon>
  <polygon class="cls-1" points="200.6 327.9 196.5 328.1 196.1 314.3 200.2 313.9 200.6 327.9"></polygon>
  <polygon class="cls-1" points="198 331.3 197.5 315.3 198.8 315.3 199.3 331.3 198 331.3"></polygon>
  <polygon class="cls-1" points="208.7 399.1 204.6 398.1 202.2 313.7 206.3 313.3 208.7 399.1"></polygon>
  <polygon class="cls-1" points="206.5 417.2 203.6 314.7 204.9 314.7 207.9 417.4 206.5 417.2"></polygon>
  <polygon class="cls-1" points="9.1 350.8 7.2 350.2 7.2 349.7 9 350.2 9.1 350.8"></polygon>
  <polygon class="cls-1" points="7.9 352.1 7.7 347.4 8.3 347.5 8.5 352.1 7.9 352.1"></polygon>
  <polygon class="cls-1" points="239.3 364.9 234.7 364.4 234 340.4 238.6 340.4 239.3 364.9"></polygon>
  <polygon class="cls-1" points="238 428.8 234.7 311.8 236.2 311.8 239.5 429.1 238 428.8"></polygon>
  <polygon class="cls-1" points="277.5 406.7 276.6 376.3 278.3 376.5 279.2 407 277.5 406.7"></polygon>
  <polygon class="cls-1" points="284.5 399 283.1 351.7 284.9 351.8 286.2 399.2 284.5 399"></polygon>
  <polygon class="cls-1" points="288.1 402.4 282.8 401.4 282 375.6 287.3 376.3 288.1 402.4"></polygon>
  <polygon class="cls-1" points="291.3 381.6 290.1 338.7 291.9 338.8 293.1 381.7 291.3 381.6"></polygon>
  <polygon class="cls-1" points="295.2 390.7 289.7 389.8 288.8 357.8 294.3 358.1 295.2 390.7"></polygon>
  <polygon class="cls-1" points="298.3 363.2 297.1 321.2 298.9 321.3 300.1 363.3 298.3 363.2"></polygon>
  <polygon class="cls-1" points="302.3 375.8 296.8 375.1 295.8 339 301.3 339 302.3 375.8"></polygon>
  <polygon class="cls-1" points="305.8 354.6 305.1 330.8 306.9 330.9 307.6 354.7 305.8 354.6"></polygon>
  <polygon class="cls-1" points="309.6 358.6 304 358.2 303.6 343.5 309.2 343.7 309.6 358.6"></polygon>
  <polygon class="cls-1" points="395.4 434.7 393.8 377.6 396.2 377.8 397.7 435.1 395.4 434.7"></polygon>
  <polygon class="cls-1" points="404.8 413.7 403.2 356 405.6 356.2 407.2 414 404.8 413.7"></polygon>
  <polygon class="cls-1" points="409.8 418.2 402.4 416.9 401.1 369.2 408.5 369.7 409.8 418.2"></polygon>
  <polygon class="cls-1" points="414.3 389 413.1 341.5 415.5 341.6 416.8 389.2 414.3 389"></polygon>
  <polygon class="cls-1" points="419.5 395.5 412 394.6 411.1 362.8 418.7 363.2 419.5 395.5"></polygon>
  <polygon class="cls-1" points="425 394 423.8 350.3 426.3 350.4 427.5 394.3 425 394"></polygon>
  <polygon class="cls-1" points="429.8 381.6 422 380.9 421.6 366.9 429.4 367.4 429.8 381.6"></polygon>
  <polygon class="cls-1" points="435.6 388.8 434.7 354.7 437.3 354.8 438.2 389 435.6 388.8"></polygon>
  <polygon class="cls-1" points="440.7 380.1 432.7 379.4 432.4 370 440.4 370.6 440.7 380.1"></polygon>
  <polygon class="cls-1" points="446.3 376.3 444.9 320 447.5 320 449 376.5 446.3 376.3"></polygon>
  <polygon class="cls-1" points="451.9 380.6 443.7 379.9 442.8 345.4 451 345.6 451.9 380.6"></polygon>
  <polygon class="cls-1" points="456.6 335.4 455 272.3 457.7 272.1 459.4 335.5 456.6 335.4"></polygon>
  <polygon class="cls-1" points="463 365 454.6 364.6 453.2 311.2 461.6 310.7 463 365"></polygon>
  <polygon class="cls-1" points="468 324.5 467 285.9 469.8 285.8 470.9 324.5 468 324.5"></polygon>
  <polygon class="cls-1" points="474 332.9 465.4 332.9 464.4 296.9 473 296.2 474 332.9"></polygon>
  <polygon class="cls-1" points="519.7 382.2 516.4 251 519.5 250.8 522.9 382.5 519.7 382.2"></polygon>
  <polygon class="cls-1" points="526.7 403.7 517 402.6 514.8 315.5 524.5 315.1 526.7 403.7"></polygon>
  <polygon class="cls-1" points="539.1 353.6 529.2 353.4 527.3 282 537.3 281 539.1 353.6"></polygon>
  <polygon class="cls-1" points="532.6 356 529.7 242.8 532.9 242.6 535.8 356.2 532.6 356"></polygon>
  <polygon class="cls-1" points="545.6 324.1 543.3 231.3 546.6 231 549 324.2 545.6 324.1"></polygon>
  <polygon class="cls-1" points="552.4 322.5 542.2 322.7 540.6 262.9 550.9 261.6 552.4 322.5"></polygon>
  <polygon class="cls-1" points="591.5 384.9 588 244.6 591.7 244.4 595.2 385.2 591.5 384.9"></polygon>
  <polygon class="cls-1" points="597.4 320.9 586.1 321.2 585.9 310.3 597.1 309.8 597.4 320.9"></polygon>
  <polygon class="cls-1" points="605.4 313.5 603.8 249.8 607.6 249.6 609.2 313.5 605.4 313.5"></polygon>
  <polygon class="cls-1" points="613.2 316 601.6 316.4 600.7 279.2 612.3 278.2 613.2 316"></polygon>
  <polygon class="cls-1" points="711.5 311.9 708.5 182.2 713.1 181.7 716.2 311.9 711.5 311.9"></polygon>
  <polygon class="cls-1" points="721.1 314.8 706.9 315.3 705.1 239.9 719.3 238.1 721.1 314.8"></polygon>
  <polygon class="cls-1" points="730.3 264.2 728.3 178 733.1 177.5 735.2 264 730.3 264.2"></polygon>
  <polygon class="cls-1" points="740.4 272.2 725.6 273.4 724.3 219.1 739.1 216.9 740.4 272.2"></polygon>
  <polygon class="cls-1" points="771.9 240.6 770.6 181.3 775.8 180.7 777.1 240.3 771.9 240.6"></polygon>
  <polygon class="cls-1" points="782.4 235.1 766.5 237.1 765.8 203.3 781.6 200.6 782.4 235.1"></polygon>
  <polygon class="cls-1" points="793 184.9 791.5 121.8 796.9 121 798.3 184.4 793 184.9"></polygon>
  <polygon class="cls-1" points="804.7 215.1 788.2 217.4 787 166.8 803.5 163.4 804.7 215.1"></polygon>
  <polygon class="cls-1" points="815.4 154.1 814 89.6 819.6 88.6 821 153.4 815.4 154.1"></polygon>
  <polygon class="cls-1" points="827.4 175.9 810.3 179.1 809.1 127 826.2 122.7 827.4 175.9"></polygon>
  <polygon class="cls-1" points="839.5 152.7 837.8 75.3 843.6 74.1 845.3 152 839.5 152.7"></polygon>
  <polygon class="cls-1" points="851.4 152.1 833.6 155.8 832.7 114.8 850.5 110.3 851.4 152.1"></polygon>
  <polygon class="cls-1" points="948.7 259.5 943.7 25.7 950.5 24.2 955.6 259.3 948.7 259.5"></polygon>
  <polygon class="cls-1" points="961 178.4 940 181.7 939.7 172.1 960.8 168.5 961 178.4"></polygon>
  <polygon class="cls-1" points="977.3 213.4 974.4 72.1 981.5 70.9 984.5 212.9 977.3 213.4"></polygon>
  <polygon class="cls-1" points="991.2 169.3 969.1 172.9 968.7 153 990.7 149 991.2 169.3"></polygon>
  <polygon class="cls-1" points="1008.1 203.7 1005.1 57 1012.6 55.6 1015.7 203.1 1008.1 203.7"></polygon>
  <polygon class="cls-1" points="1022.7 162.1 999.7 165.9 998.8 125.4 1021.8 120.7 1022.7 162.1"></polygon>
  <polygon class="cls-1" points="1039 126.4 1037.4 48.7 1045.3 47.2 1046.9 125.3 1039 126.4"></polygon>
  <polygon class="cls-1" points="1055.2 130.1 1031.1 134.7 1030.2 91.3 1054.3 85.8 1055.2 130.1"></polygon>
  <polygon class="cls-1" points="1072.5 99.5 1071.1 31.6 1079.4 30 1080.7 98.3 1072.5 99.5"></polygon>
  <polygon class="cls-1" points="1089.5 103.9 1064.2 109.1 1063.4 70.2 1088.7 64.1 1089.5 103.9"></polygon>
  <polygon class="cls-1" points="751.2 273.2 748.8 170.5 753.8 169.9 756.2 273.1 751.2 273.2"></polygon>
  <polygon class="cls-1" points="760.9 247.2 745.6 248.9 745.1 230.2 760.4 228.1 760.9 247.2"></polygon>
  <polygon class="cls-1" points="655.8 314.3 654.7 267.1 658.9 267 660 314.3 655.8 314.3"></polygon>
  <polygon class="cls-1" points="664 300.1 651.2 300.7 651.1 296.1 663.9 295.3 664 300.1"></polygon>
  <polygon class="cls-1" points="246.3 388.9 241.7 388 240.6 351.6 245.3 351.8 246.3 388.9"></polygon>
  <polygon class="cls-1" points="243.8 407.4 242.3 356.5 243.9 356.6 245.3 407.6 243.8 407.4"></polygon>
  <polygon class="cls-1" points="253.3 404.6 248.5 403.5 247.6 371.5 252.4 372.1 253.3 404.6"></polygon>
  <polygon class="cls-1" points="251 435.2 249.2 369.1 250.7 369.2 252.6 435.5 251 435.2"></polygon>
  <polygon class="cls-1" points="318.3 384.2 312.5 383.4 311.6 350.6 317.3 350.8 318.3 384.2"></polygon>
  <polygon class="cls-1" points="315.3 416.1 313.8 360.8 315.7 361 317.2 416.4 315.3 416.1"></polygon>
  <polygon class="cls-1" points="327.4 420.9 321.4 419.6 320 367.5 325.9 368 327.4 420.9"></polygon>
  <polygon class="cls-1" points="485.9 321.2 477 321.4 477 319.8 485.8 319.5 485.9 321.2"></polygon>
  <polygon class="cls-1" points="480.6 343 479.6 306.1 482.5 306.1 483.5 343.1 480.6 343"></polygon>
  <polygon class="cls-1" points="500.9 416.4 491.7 415.1 489.4 325 498.5 324.8 500.9 416.4"></polygon>
  <polygon class="cls-1" points="496.8 492.9 492.3 320.6 495.3 320.7 499.8 493.5 496.8 492.9"></polygon>
  <polygon class="cls-1" points="514.3 437.5 504.9 435.8 503 363.2 512.4 363.6 514.3 437.5"></polygon>
  <polygon class="cls-1" points="510.7 538.9 505.9 354.4 509 354.6 513.8 539.7 510.7 538.9"></polygon>
  <polygon class="cls-1" points="566.5 305.8 556 306.3 555.5 289.5 566.1 288.7 566.5 305.8"></polygon>
  <polygon class="cls-1" points="560.1 329.7 558.6 272.2 562.1 272 563.6 329.8 560.1 329.7"></polygon>
  <polygon class="cls-1" points="582.2 331.6 571.3 331.7 570.3 293.1 581.2 292.4 582.2 331.6"></polygon>
  <polygon class="cls-1" points="575.6 358.7 574.2 303.2 577.8 303.2 579.2 358.9 575.6 358.7"></polygon>
  <polygon class="cls-1" points="629.5 304.4 617.5 305 617.2 293.5 629.2 292.7 629.5 304.4"></polygon>
  <polygon class="cls-1" points="622.2 334.2 621 285.3 624.9 285.2 626.1 334.3 622.2 334.2"></polygon>
  <polygon class="cls-1" points="646.4 301.2 634 301.9 633.9 298.5 646.3 297.8 646.4 301.2"></polygon>
  <polygon class="cls-1" points="638.5 316.9 637.4 269 641.4 268.8 642.6 316.9 638.5 316.9"></polygon>
  <polygon class="cls-1" points="682.3 301.8 669.1 302.5 668.9 296.5 682.2 295.7 682.3 301.8"></polygon>
  <polygon class="cls-1" points="673.9 318.3 672.5 263 676.9 262.8 678.2 318.3 673.9 318.3"></polygon>
  <polygon class="cls-1" points="701.4 310.3 687.7 310.8 687.4 297.6 701.1 296.9 701.4 310.3"></polygon>
  <polygon class="cls-1" points="693.9 380.4 691.7 286.4 696.2 286.2 698.4 380.6 693.9 380.4"></polygon>
  <polygon class="cls-1" points="876.7 138.8 858.2 142.8 857.7 123.6 876.3 119.2 876.7 138.8"></polygon>
  <polygon class="cls-1" points="866.3 229.3 862.9 75.8 868.9 74.6 872.4 228.9 866.3 229.3"></polygon>
  <polygon class="cls-1" points="904.8 203.1 885.4 205.8 883.8 133.6 903.2 129.4 904.8 203.1"></polygon>
  <polygon class="cls-1" points="894.4 321.3 890.4 139.2 896.7 138.3 900.8 321.4 894.4 321.3"></polygon>
  <polygon class="cls-1" points="932.8 212.8 912.6 215.3 911.2 150.9 931.3 146.9 932.8 212.8"></polygon>
  <polygon class="cls-1" points="922.3 351.9 916.6 89.5 923.2 88.4 928.9 352.1 922.3 351.9"></polygon>
</svg>
