<?xml version="1.0" encoding="UTF-8"?>
<svg xmlns="http://www.w3.org/2000/svg" xmlns:xlink="http://www.w3.org/1999/xlink" id="Layer_2" data-name="Layer 2" viewBox="0 0 327.1 53.4">
  <defs>
    <linearGradient id="linear-gradient" x1=".11" y1="-377.55" x2="59.43" y2="-377.55" gradientTransform="translate(0 404.25)" gradientUnits="userSpaceOnUse">
      <stop offset="0" stop-color="#5043f3"></stop>
      <stop offset="1" stop-color="#5bffc8"></stop>
    </linearGradient>
  </defs>
  <g id="Layer_1-2" data-name="Layer 1">
    <g>
      <path id="logoMark_CompoundPathItem_" data-name="logoMark  CompoundPathItem " d="m48.1,21v-7l-10.9,12.7,10.8,12.6v-4.6c0-3.1,2.5-5.7,5.7-5.7s5.7,2.5,5.7,5.7v8.8c0,2.9-1.3,5.6-3.5,7.5-4.1,3.5-10.3,3-13.9-1.1l-12.3-14.4-12.4,14.4c-1.8,2.2-4.5,3.4-7.3,3.5-1.1,0-2.2-.2-3.2-.6C2.7,51.3.1,47.3.1,42.7v-7.8c.1-3,2.5-5.3,5.4-5.4,3.1-.2,5.8,2.3,5.9,5.4v4.5l10.9-12.5-10.9-12.7v6.6c0,3-2.1,5.7-5.1,6h-.6c-3.1,0-5.7-2.5-5.7-5.7v-10.4C0,6.1,2.6,2.1,6.7.6c1-.4,2.1-.6,3.2-.6,2.8,0,5.5,1.3,7.3,3.5l12.5,14.6,12.8-14.8c1.8-2.1,4.4-3.3,7.2-3.3,5.3,0,9.5,4.3,9.5,9.5v11.4c0,3.1-2.5,5.7-5.7,5.7s-5.4-2.4-5.4-5.6Z" fill="url(#linear-gradient)"></path>
      <path id="logoMark_CompoundPathItem_-2" data-name="logoMark  CompoundPathItem -2" d="m29.8,35.4l7.5-8.7,1.2,1.4-7.5,8.7-1.2-1.4Z" fill="#4536ff" opacity=".3"></path>
      <a>
        <path id="logoMark_PathItem_" data-name="logoMark  PathItem " d="m32.4,48.2c0,1.5-1.2,2.7-2.7,2.7s-2.7-1.2-2.7-2.7,1.2-2.7,2.7-2.7h0c1.5,0,2.7,1.2,2.7,2.7h0" fill="#5bffc8"></path>
      </a>
      <g id="type">
        <path id="type_CompoundPathItem_" data-name="type  CompoundPathItem " d="m81.1,1.4h4.8l7.8,12.1,7.8-12.1h4.8v25.6h-4.5V8.7l-8.1,12.1h-.1l-8-12v18.3h-4.4l-.1-25.7h0Z" fill="#fff"></path>
        <path id="type_CompoundPathItem_-2" data-name="type  CompoundPathItem -2" d="m124.1,27v-2.4c-1.3,1.6-3.3,2.8-6.2,2.8-3.7,0-6.9-2.1-6.9-6v-.1c0-4.3,3.3-6.3,7.8-6.3,2.3,0,3.8.3,5.3.8v-.4c0-2.7-1.7-4.1-4.7-4.1-2.2,0-3.8.5-5.5,1.2l-1.2-3.5c2.1-.9,4.2-1.6,7.3-1.6,5.7,0,8.5,3,8.5,8.1v11.4h-4.4v.1Zm.1-8.1c-1.1-.4-2.7-.8-4.4-.8-2.8,0-4.4,1.1-4.4,3v.1c0,1.8,1.6,2.8,3.7,2.8,2.9,0,5.1-1.6,5.1-4.1v-1h0Z" fill="#fff"></path>
        <path id="type_CompoundPathItem_-3" data-name="type  CompoundPathItem -3" d="m133.7,7.7h4.4v4.3c1.2-2.9,3.4-4.9,6.8-4.7v4.7h-.3c-3.9,0-6.6,2.5-6.6,7.6v7.3h-4.4V7.7h.1Z" fill="#fff"></path>
        <path id="type_CompoundPathItem_-4" data-name="type  CompoundPathItem -4" d="m148.8.3h4.4v15.9l8-8.5h5.4l-7.7,7.9,7.9,11.4h-5.1l-5.8-8.3-2.7,2.8v5.5h-4.4V.3h0Z" fill="#fff"></path>
        <path id="type_CompoundPathItem_-5" data-name="type  CompoundPathItem -5" d="m168.1,17.4h0c0-5.6,3.9-10.1,9.4-10.1,6.1,0,9.2,4.8,9.2,10.4,0,.4,0,.8-.1,1.2h-14.2c.5,3.1,2.7,4.9,5.6,4.9,2.2,0,3.7-.8,5.2-2.3l2.6,2.3c-1.8,2.2-4.3,3.6-7.9,3.6-5.5,0-9.8-4-9.8-10h0Zm14.3-1.4c-.3-2.8-2-5.1-4.9-5.1-2.7,0-4.6,2.1-5,5.1h9.9Z" fill="#fff"></path>
        <path id="type_CompoundPathItem_-6" data-name="type  CompoundPathItem -6" d="m192.2,21.7v-10.2h-2.4v-3.8h2.4V2.4h4.4v5.3h5.2v3.8h-5.2v9.5c0,1.7.9,2.4,2.4,2.4,1,0,1.9-.2,2.7-.7v3.6c-1.1.6-2.3,1-4,1-3.2,0-5.5-1.4-5.5-5.6h0Z" fill="#fff"></path>
        <path id="type_CompoundPathItem_-7" data-name="type  CompoundPathItem -7" d="m208.6,14.3h0c0-7.3,5.4-13.3,13.2-13.3,4.7,0,7.6,1.6,10,4l-2.9,3.3c-2-1.9-4.2-3.2-7.2-3.2-4.9,0-8.4,4-8.4,9v.1c0,5,3.5,9.1,8.4,9.1,3.1,0,5.2-1.3,7.3-3.3l2.9,2.9c-2.7,2.8-5.6,4.5-10.4,4.5-7.3,0-12.9-5.8-12.9-13.1h0Z" fill="#fff"></path>
        <path id="type_CompoundPathItem_-8" data-name="type  CompoundPathItem -8" d="m236.3.6h4.7v4.2h-4.7s0-4.2,0-4.2Zm.2,7.1h4.4v19.3h-4.4V7.7h0Z" fill="#fff"></path>
        <path id="type_CompoundPathItem_-9" data-name="type  CompoundPathItem -9" d="m246.7,7.7h4.4v3.2c1.4-2,3.4-3.6,6.5-3.6,4.6,0,9,3.6,9,10v.1c0,6.4-4.4,10-9,10-3.2,0-5.2-1.6-6.5-3.4v8.8h-4.4V7.7Zm15.4,9.7h0c0-3.8-2.5-6.2-5.5-6.2s-5.6,2.5-5.6,6.2v.1c0,3.7,2.6,6.2,5.6,6.2,3-.1,5.5-2.5,5.5-6.3Z" fill="#fff"></path>
        <path id="type_CompoundPathItem_-10" data-name="type  CompoundPathItem -10" d="m271.1.3h4.4v10.4c1.2-1.8,3-3.4,6-3.4,4.3,0,6.9,2.9,6.9,7.4v12.3h-4.4v-11c0-3-1.5-4.7-4.1-4.7s-4.3,1.8-4.3,4.8v10.9h-4.4V.3h-.1Z" fill="#fff"></path>
        <path id="type_CompoundPathItem_-11" data-name="type  CompoundPathItem -11" d="m292.7,17.4h0c0-5.6,3.9-10.1,9.4-10.1,6.1,0,9.2,4.8,9.2,10.4,0,.4,0,.8-.1,1.2h-14.2c.5,3.1,2.7,4.9,5.6,4.9,2.2,0,3.7-.8,5.2-2.3l2.6,2.3c-1.8,2.2-4.3,3.6-7.9,3.6-5.4,0-9.8-4-9.8-10h0Zm14.3-1.4c-.3-2.8-2-5.1-4.9-5.1-2.7,0-4.6,2.1-5,5.1h9.9Z" fill="#fff"></path>
        <path id="type_CompoundPathItem_-12" data-name="type  CompoundPathItem -12" d="m315.9,7.7h4.4v4.3c1.2-2.9,3.4-4.9,6.8-4.7v4.7h-.3c-3.9,0-6.6,2.5-6.6,7.6v7.3h-4.4V7.7h.1Z" fill="#fff"></path>
      </g>
      <g>
        <path d="m80.1,42.6h7.8v1.7h-5.9v2.7h5.3v1.7h-5.3v2.8h6v1.7h-7.9v-10.6h0Z" fill="#5bffc8"></path>
        <path d="m90.1,42.6h2l3.2,5,3.2-5h2v10.5h-1.8v-7.5l-3.3,4.9h-.1l-3.3-4.9v7.5h-1.8v-10.5h-.1Z" fill="#5bffc8"></path>
        <path d="m103.1,42.6h4.1c2.4,0,4,1.4,4,3.5h0c0,2.4-1.9,3.6-4.2,3.6h-2.1v3.4h-1.8v-10.5Zm4,5.5c1.4,0,2.3-.8,2.3-1.9h0c0-1.2-.9-1.9-2.3-1.9h-2.1v3.8h2.1Z" fill="#5bffc8"></path>
        <path d="m112.7,47.9h0c0-3,2.3-5.5,5.5-5.5s5.5,2.4,5.5,5.4h0c0,3-2.3,5.4-5.5,5.4-3.3.1-5.5-2.3-5.5-5.3Zm9,0h0c0-2.1-1.5-3.8-3.6-3.8s-3.5,1.7-3.5,3.7h0c0,2,1.5,3.7,3.6,3.7s3.5-1.5,3.5-3.6Z" fill="#5bffc8"></path>
        <path d="m124.5,42.6h2l2.5,7.8,2.6-7.8h1.6l2.6,7.8,2.5-7.8h1.9l-3.7,10.6h-1.6l-2.6-7.5-2.6,7.5h-1.6l-3.6-10.6Z" fill="#5bffc8"></path>
        <path d="m142.1,42.6h7.8v1.7h-5.9v2.7h5.3v1.7h-5.3v2.8h6v1.7h-7.9v-10.6h0Z" fill="#5bffc8"></path>
        <path d="m152.1,42.6h4.7c1.3,0,2.4.4,3,1.1.6.6.9,1.3.9,2.3h0c0,1.7-1,2.8-2.5,3.2l2.8,4h-2.2l-2.6-3.7h-2.3v3.7h-1.8v-10.6h0Zm4.6,5.2c1.3,0,2.2-.7,2.2-1.8h0c0-1.1-.8-1.7-2.2-1.7h-2.7v3.5h2.7Z" fill="#5bffc8"></path>
        <path d="m163.1,42.6h1.8v10.5h-1.8v-10.5Z" fill="#5bffc8"></path>
        <path d="m167.7,42.6h1.7l5.6,7.3v-7.3h1.8v10.5h-1.5l-5.8-7.5v7.5h-1.8v-10.5Z" fill="#5bffc8"></path>
        <path d="m179.1,47.9h0c0-3,2.2-5.5,5.4-5.5,1.8,0,3,.5,4,1.4l-1.2,1.4c-.8-.7-1.6-1.1-2.9-1.1-1.9,0-3.4,1.7-3.4,3.7h0c0,2.2,1.4,3.8,3.6,3.8,1,0,1.9-.3,2.5-.8v-2h-2.7v-1.6h4.5v4.4c-1,.9-2.5,1.6-4.4,1.6-3.2.1-5.4-2.2-5.4-5.3Z" fill="#5bffc8"></path>
        <path d="m198.4,44.3h-3.3v-1.7h8.5v1.7h-3.3v8.8h-1.9v-8.8Z" fill="#5bffc8"></path>
        <path d="m205.6,42.6h4.7c1.3,0,2.4.4,3,1.1.6.6.9,1.3.9,2.3h0c0,1.7-1,2.8-2.5,3.2l2.8,4h-2.2l-2.6-3.7h-2.3v3.7h-1.8v-10.6Zm4.5,5.2c1.3,0,2.2-.7,2.2-1.8h0c0-1.1-.8-1.7-2.2-1.7h-2.7v3.5h2.7Z" fill="#5bffc8"></path>
        <path d="m220.1,42.6h1.7l4.6,10.6h-2l-1.1-2.5h-5l-1.1,2.5h-1.9l4.8-10.6Zm2.7,6.4l-1.8-4.2-1.8,4.2h3.6Z" fill="#5bffc8"></path>
        <path d="m228.3,42.6h3.9c3.3,0,5.6,2.3,5.6,5.2h0c0,3-2.3,5.2-5.6,5.2h-3.9v-10.4Zm3.9,8.9c2.2,0,3.6-1.5,3.6-3.5h0c0-2.1-1.4-3.6-3.6-3.6h-2.1v7.1h2.1Z" fill="#5bffc8"></path>
        <path d="m240,42.6h7.8v1.7h-5.9v2.7h5.3v1.7h-5.3v2.8h6v1.7h-7.9v-10.6Z" fill="#5bffc8"></path>
        <path d="m250.1,42.6h4.7c1.3,0,2.4.4,3,1.1.6.6.9,1.3.9,2.3h0c0,1.7-1,2.8-2.5,3.2l2.8,4h-2.2l-2.6-3.7h-2.3v3.7h-1.8v-10.6Zm4.5,5.2c1.3,0,2.2-.7,2.2-1.8h0c0-1.1-.8-1.7-2.2-1.7h-2.7v3.5h2.7Z" fill="#5bffc8"></path>
        <path d="m260.2,51.6l1.1-1.3c1,.9,2,1.4,3.3,1.4,1.1,0,1.9-.5,1.9-1.3h0c0-.8-.4-1.2-2.4-1.6-2.2-.5-3.5-1.2-3.5-3.1h0c0-1.8,1.5-3,3.6-3,1.5,0,2.7.5,3.8,1.3l-1,1.4c-.9-.7-1.9-1.1-2.8-1.1-1.1,0-1.7.6-1.7,1.2h0c0,.8.5,1.2,2.5,1.6,2.2.5,3.4,1.3,3.4,3.1h0c0,2-1.5,3.1-3.8,3.1-1.6,0-3.1-.6-4.4-1.7Z" fill="#5bffc8"></path>
      </g>
    </g>
  </g>
</svg>
